<?xml version="1.0" encoding="UTF-8"?>
<svg version="1.1" xmlns="http://www.w3.org/2000/svg" width="256" height="256">
<path d="M0 0 C0.69142037 -0.00297112 1.38284073 -0.00594224 2.09521323 -0.0090034 C4.40567638 -0.01765577 6.7160875 -0.01919571 9.02656555 -0.02069092 C10.68593455 -0.02532159 12.34530248 -0.03034659 14.00466919 -0.03573608 C18.50903273 -0.04883914 23.01338138 -0.0553011 27.51776099 -0.05974674 C30.33454382 -0.06268119 33.15132262 -0.06678673 35.96810341 -0.07125092 C44.78872905 -0.08492109 53.60934543 -0.09458978 62.42998093 -0.09845281 C72.59783049 -0.1029308 82.76554544 -0.12046872 92.93335408 -0.1494534 C100.80191403 -0.17110184 108.6704362 -0.1811588 116.5390256 -0.18249393 C121.23419647 -0.1835398 125.92924071 -0.18940105 130.62438011 -0.20731354 C135.04442241 -0.2238487 139.46424365 -0.22592341 143.88430595 -0.21717453 C145.50073592 -0.21640703 147.11717804 -0.22070876 148.73357773 -0.23063278 C165.21688603 -0.32584569 177.40931852 3.11160231 189.65278625 14.63262939 C201.32096318 27.03489692 203.62203397 41.47430178 203.52973938 57.83184814 C203.53517283 59.4678306 203.54230229 61.10380815 203.55097961 62.73977661 C203.56907075 67.14482209 203.56220483 71.54948894 203.54946327 75.95454025 C203.5392613 80.58756196 203.54874877 85.22055353 203.55500793 89.85357666 C203.56226354 97.63057207 203.55275168 105.407415 203.53364563 113.18438721 C203.51188091 122.14644752 203.51893377 131.1081437 203.54095125 140.0701952 C203.55916499 147.79631805 203.5616345 155.52233195 203.55119658 163.24846935 C203.54499435 167.84916836 203.54403509 172.44969681 203.55734253 177.05038452 C203.56898787 181.37789893 203.56071876 185.70494871 203.5377655 190.03241348 C203.53252438 191.61048744 203.53391225 193.18860124 203.54281616 194.76665878 C203.62255545 210.3482301 200.52997314 223.79594463 189.758255 235.61309814 C176.78732193 248.08434841 163.14096141 250.44359316 145.88838196 250.43096924 C144.25314021 250.43696035 142.61790128 250.44376723 140.98266602 250.45132446 C136.55677295 250.4689347 132.13095731 250.4736778 127.70503259 250.47495604 C124.93426928 250.47638128 122.16352542 250.480658 119.39276695 250.48595047 C109.71030308 250.50443595 100.02789414 250.51262315 90.34541321 250.51104736 C81.34655877 250.50984713 72.34794463 250.5309301 63.34915096 250.56253469 C55.60191775 250.58876558 47.85476269 250.59941178 40.10748547 250.59813654 C35.48991924 250.59762881 30.8725666 250.60320672 26.25504494 250.62449265 C21.90711569 250.64398967 17.55960125 250.64392198 13.21165657 250.62945938 C11.62551002 250.62738415 10.03933672 250.63199452 8.45323563 250.6441803 C-7.8289612 250.7610649 -21.57810509 247.16760726 -33.80033875 235.82794189 C-42.16439473 226.88221296 -47.09894249 215.47262955 -47.12828064 203.27285767 C-47.13125176 202.58229172 -47.13422288 201.89172578 -47.13728404 201.1802336 C-47.14595421 198.86666443 -47.14747788 196.55314711 -47.14897156 194.23956299 C-47.15360103 192.58034149 -47.15862587 190.92112105 -47.16401672 189.26190186 C-47.17713281 184.753347 -47.18358448 180.24480704 -47.18802738 175.7362361 C-47.19096021 172.91728103 -47.19506548 170.09833001 -47.19953156 167.27937698 C-47.21320622 158.45340855 -47.22287226 149.6274494 -47.22673345 140.80147111 C-47.23121017 130.62512147 -47.24874027 120.44890641 -47.27773404 110.27259767 C-47.2993831 102.39981163 -47.3094395 94.52706336 -47.31077456 86.65424788 C-47.31182055 81.9557087 -47.31768403 77.25729604 -47.33559418 72.5587883 C-47.35213001 68.13465543 -47.35420373 63.71074342 -47.34545517 59.28659058 C-47.34468766 57.6685489 -47.34898954 56.05049509 -47.35891342 54.43248367 C-47.44926096 38.77550202 -44.47401188 25.87285124 -33.61283875 13.95294189 C-24.431776 5.20507998 -12.64350593 0.03042792 0 0 Z " fill="#000000" transform="translate(49.98783874511719,2.85955810546875)"/>
<path d="M0 0 C5.59950426 3.33028678 9.5482927 7.77301102 11.45703125 14.05078125 C11.76253442 17.62806589 11.75075298 21.19652699 11.74755859 24.78515625 C11.75427582 25.86715805 11.76099304 26.94915985 11.76791382 28.06394958 C11.78691722 31.64294019 11.79081997 35.22174331 11.79296875 38.80078125 C11.79939764 41.2959806 11.80612607 43.79117919 11.81314087 46.28637695 C11.82512135 51.5218222 11.82890692 56.75722012 11.82763672 61.99267578 C11.8263078 68.67598213 11.85467537 75.3587968 11.88918114 82.04202271 C11.91151262 87.19986889 11.91547225 92.35761337 11.91441727 97.51550293 C11.91676615 99.97767606 11.92554913 102.43985229 11.941082 104.90197754 C12.03574114 121.46444712 12.07929856 135.4585601 1.45703125 149.05078125 C1.01746094 149.664375 0.57789063 150.27796875 0.125 150.91015625 C-6.61453249 159.68902854 -16.97884066 164.52355299 -27.54296875 167.05078125 C-28.86296875 167.05078125 -30.18296875 167.05078125 -31.54296875 167.05078125 C-31.87296875 136.03078125 -32.20296875 105.01078125 -32.54296875 73.05078125 C-51.32383723 91.95027547 -51.32383723 91.95027547 -70.08813477 110.86621094 C-73.73815918 114.52978516 -73.73815918 114.52978516 -75.45274353 116.24688721 C-76.64021799 117.43894651 -77.82472876 118.63396283 -79.00682068 119.83135986 C-80.80555552 121.65219772 -82.61368849 123.46321419 -84.42407227 125.27246094 C-84.94225053 125.80143353 -85.46042879 126.33040611 -85.99430943 126.87540817 C-94.05397669 134.86801195 -98.11656862 135.05078125 -110.54296875 135.05078125 C-110.54296875 115.91078125 -110.54296875 96.77078125 -110.54296875 77.05078125 C-108.23296875 78.70078125 -105.92296875 80.35078125 -103.54296875 82.05078125 C-102.55626694 81.05519699 -101.56956512 80.05961273 -100.55296326 79.03385925 C-91.25033775 69.65012695 -81.93727059 60.27686683 -72.6135397 50.91410351 C-67.82045033 46.10041293 -63.0311631 41.28305186 -58.25073242 36.45678711 C-53.63686351 31.79870239 -49.0125136 27.15118403 -44.38167 22.50997353 C-42.61714523 20.7380613 -40.85614337 18.9626336 -39.09875298 17.18364525 C-36.63555165 14.69138431 -34.16008994 12.21194781 -31.68139648 9.73510742 C-30.59705826 8.62919754 -30.59705826 8.62919754 -29.49081421 7.50094604 C-21.44744529 -0.47764454 -11.26014393 -4.2030952 0 0 Z " fill="#F2D320" transform="translate(207.54296875,44.94921875)"/>
<path d="M0 0 C5.98298089 4.34059398 9.2460722 9.21104574 11.1875 16.3125 C11.56833163 19.40970826 11.5689727 22.45686117 11.52807617 25.57421875 C11.52873329 26.90733345 11.52873329 26.90733345 11.52940369 28.26737976 C11.52732878 31.17848376 11.50405945 34.08899773 11.48046875 37 C11.47486817 39.02880539 11.47060026 41.05761487 11.46760559 43.08642578 C11.4561932 48.40638582 11.42675715 53.72609717 11.39349365 59.04595947 C11.36271486 64.48242835 11.3490836 69.91893771 11.33398438 75.35546875 C11.30188392 86.00792131 11.25073136 96.66018991 11.1875 107.3125 C9.76173717 107.1789362 8.3366442 107.03821094 6.91186523 106.89453125 C6.11820053 106.8169458 5.32453583 106.73936035 4.50682068 106.65942383 C-5.39462145 105.17836679 -15.42651531 97.6563824 -21.8125 90.3125 C-29.67825956 79.2885188 -32.28098278 68.97219319 -32.24609375 55.5859375 C-32.2513356 54.39827789 -32.25657745 53.21061829 -32.26197815 51.98696899 C-32.26836756 49.49099506 -32.2671016 46.99499089 -32.25854492 44.49902344 C-32.25000899 40.69151204 -32.27888429 36.88548963 -32.31054688 33.078125 C-32.31215854 30.64322961 -32.31158202 28.20833159 -32.30859375 25.7734375 C-32.31982773 24.64304047 -32.33106171 23.51264343 -32.34263611 22.34799194 C-32.2698598 14.06055522 -30.92290871 8.49359982 -25.0625 2.5 C-17.10757389 -2.85427719 -8.91183204 -4.6109044 0 0 Z " fill="#F0D11F" transform="translate(68.8125,104.6875)"/>
<path d="M0 0 C5.3038734 3.05281085 10.22089912 8.22071592 12.15625 14.109375 C13.28542167 20.55301766 13.21214244 26.50764527 9.9140625 32.2734375 C6.00843877 37.54275667 1.07984225 41.92936551 -5.484375 43.16015625 C-12.73730525 43.74506998 -18.09615704 42.31629495 -24.234375 38.41015625 C-28.98855856 33.65597269 -31.63582112 28.23160705 -31.796875 21.53515625 C-31.71673927 14.83580915 -30.48482568 10.27895418 -25.80078125 5.41015625 C-18.38866427 -1.22089894 -9.78112018 -3.30651075 0 0 Z " fill="#F2D320" transform="translate(74.484375,44.83984375)"/>
</svg>
