<?xml version="1.0" encoding="UTF-8"?>
<svg version="1.1" xmlns="http://www.w3.org/2000/svg" width="1024" height="1024">
<path d="M0 0 C5.83093602 2.04594246 8.05658617 6.25792202 10.75390625 11.6171875 C13.36785714 17.65531759 14.62455722 23.75844868 15.5625 30.25 C14.9025 30.25 14.2425 30.25 13.5625 30.25 C12.7276938 42.77209301 14.53653074 53.16427727 18.09375 65.1640625 C19.86304129 71.13432029 21.00248031 77.04603192 21.5625 83.25 C21.645 84.07113281 21.7275 84.89226562 21.8125 85.73828125 C22.13571263 92.23283498 20.84279667 98.29637452 19.5625 104.625 C16.53414677 119.9884513 17.03761704 128.91065983 24.65039062 142.57299805 C27.08418913 147.04777373 27.83680185 150.88037562 28.3125 155.9375 C29.19829265 162.66952416 31.10510717 168.04403738 35.5625 173.25 C36.5525 173.58 37.5425 173.91 38.5625 174.25 C39.078125 174.971875 39.59375 175.69375 40.125 176.4375 C42.50526759 179.1839626 44.33575927 180.45033934 47.4375 182.25 C56.30214983 187.40477435 61.34602318 192.34955196 64.19921875 202.51953125 C65.08040623 205.95349215 65.92122573 209.39228901 66.68774414 212.85375977 C68.8083899 222.195026 72.95666419 230.13051529 77.5 238.5 C88.1921443 258.60872086 92.79890613 278.35487079 92.875 301.0625 C92.87828308 301.86736847 92.88156616 302.67223694 92.88494873 303.50149536 C92.90845753 321.93040099 91.81145562 340.30099521 90.6875 358.6875 C90.59957376 360.14384938 90.51165258 361.60019907 90.42373657 363.05654907 C87.69434859 407.93237417 87.69434859 407.93237417 78.94140625 418.140625 C67.51381465 431.70554669 71.36941826 453.67855559 72.20385742 470.16845703 C72.6006949 478.20352549 72.66621643 486.20621485 72.5625 494.25 C73.2225 494.58 73.8825 494.91 74.5625 495.25 C74.39645264 495.91306152 74.23040527 496.57612305 74.05932617 497.25927734 C69.97282428 513.57367877 69.97282428 513.57367877 66.6875 530.0625 C66.56785889 530.72233887 66.44821777 531.38217773 66.32495117 532.06201172 C64.77509023 541.6284359 65.56725507 551.11771845 66.5078125 560.703125 C66.64771103 562.12887093 66.64771103 562.12887093 66.79043579 563.5834198 C67.18425487 567.5488338 67.58246127 571.51354232 68.00439453 575.47607422 C69.71917871 591.73029609 70.56053471 606.38652586 63.5625 621.625 C62.84546702 623.23312831 62.13707135 624.8451365 61.4375 626.4609375 C60.96957031 627.48646729 60.96957031 627.48646729 60.4921875 628.53271484 C57.05921416 638.56658912 57.53046394 648.24764822 58.0234375 658.6796875 C58.09481514 660.39514057 58.16490622 662.11064758 58.23379517 663.82620239 C58.41777643 668.3468639 58.61473742 672.86685159 58.81585693 677.38677979 C60.71521731 720.14192513 60.71521731 720.14192513 60.8903389 739.80728531 C60.90585923 741.32867961 60.9279708 742.85002454 60.95746994 744.37121201 C61.33263103 764.98091036 61.33263103 764.98091036 54.88491821 772.10305786 C51.15329905 775.14885539 47.38471426 776.25 42.5625 776.25 C38.17348336 775.35317307 34.04988113 774.38271909 30.44921875 771.640625 C28.55065254 769.95334363 28.55065254 769.95334363 25.5625 770.25 C25.50191406 769.64671875 25.44132813 769.0434375 25.37890625 768.421875 C25.29511719 767.62265625 25.21132813 766.8234375 25.125 766 C25.04378906 765.21109375 24.96257812 764.4221875 24.87890625 763.609375 C24.63001277 761.31963741 24.63001277 761.31963741 24.04248047 759.43579102 C23.4751265 756.85210835 23.50770865 754.56471723 23.56640625 751.91796875 C23.61567796 745.7382589 23.39385185 739.59777974 23.08984375 733.42578125 C23.04308502 732.46541962 22.99632629 731.50505798 22.94815063 730.51559448 C22.75054776 726.50535516 22.54803966 722.49538729 22.34155273 718.4855957 C22.19048804 715.52836829 22.04601688 712.57087559 21.90234375 709.61328125 C21.85343491 708.70193924 21.80452606 707.79059723 21.75413513 706.85163879 C21.7140181 706.01283676 21.67390106 705.17403473 21.63256836 704.30981445 C21.57594276 703.20280937 21.57594276 703.20280937 21.51817322 702.07344055 C21.5625 700.25 21.5625 700.25 22.5625 698.25 C21.9025 697.92 21.2425 697.59 20.5625 697.25 C20.56773682 696.43023682 20.57297363 695.61047363 20.57836914 694.76586914 C20.91362936 668.93506296 20.91362936 668.93506296 18.5625 643.25 C19.2225 642.92 19.8825 642.59 20.5625 642.25 C20.52713135 640.99638672 20.4917627 639.74277344 20.45532227 638.45117188 C20.45975022 632.86132298 21.32696381 627.52774256 22.27734375 622.03125 C22.63741404 619.85938234 22.9974386 617.68750709 23.35742188 615.515625 C23.9253926 612.14343612 24.4963023 608.77176423 25.0690918 605.40039062 C27.27716653 592.34194605 29.20596064 579.50271704 29.5625 566.25 C28.5725 565.92 27.5825 565.59 26.5625 565.25 C25.375 561.6875 25.375 561.6875 24.5625 558.25 C24.8925 557.92 25.2225 557.59 25.5625 557.25 C25.3975 556.651875 25.2325 556.05375 25.0625 555.4375 C24.50309805 552.99011646 24.80391807 551.61003266 25.5625 549.25 C24.9025 548.92 24.2425 548.59 23.5625 548.25 C24.01928538 546.39545138 24.4780106 544.54138051 24.9375 542.6875 C25.19273437 541.65496094 25.44796875 540.62242187 25.7109375 539.55859375 C26.5625 536.25 26.5625 536.25 27.65625 533.03125 C28.84643231 528.06531692 28.77784201 523.39597558 28.6875 518.3125 C28.67847656 517.34248047 28.66945313 516.37246094 28.66015625 515.37304688 C28.63676107 512.99843593 28.60398176 510.62435224 28.5625 508.25 C27.9025 507.92 27.2425 507.59 26.5625 507.25 C26.80814959 493.73066981 28.72750749 481.34761905 32 468.25 C32.61726836 465.71544033 33.22971818 463.17975598 33.84121704 460.64379883 C34.23043484 459.02990144 34.62147259 457.41644168 35.01449585 455.8034668 C36.42112977 449.98862753 37.62041399 444.1598259 38.5625 438.25 C37.9025 438.25 37.2425 438.25 36.5625 438.25 C37.49583783 429.07217799 38.69875315 419.98283091 40.734375 410.98046875 C43.31816866 399.35436356 44.92677286 388.15753634 45.4375 376.25 C45.99554875 363.28132864 47.84356592 350.82372591 50.1875 338.0625 C55.33170949 309.78729042 55.33170949 309.78729042 48.5625 282.25 C48.02399414 281.03691162 48.02399414 281.03691162 47.47460938 279.79931641 C43.54480208 269.8594595 43.54480208 269.8594595 37.5625 261.25 C36.8821452 259.588874 36.21828842 257.92097689 35.5625 256.25 C34.39848638 253.98338355 33.21494092 251.73876753 32 249.5 C31.28254606 248.16146156 30.56509838 246.82291977 29.84765625 245.484375 C28.32478836 242.65534745 26.78844464 239.8340683 25.24609375 237.015625 C16.04005885 220.08413742 9.0959608 202.18153292 5 183.3125 C4.14626275 179.75360692 3.72328847 178.43251665 1.25 175.625 C-4.64407103 172.60942878 -9.85202901 171.47246675 -16.4375 172.25 C-20.50412662 173.80271198 -22.01269602 174.61279402 -24.4375 178.25 C-24.84517819 180.70512868 -25.14335831 183.08962088 -25.375 185.5625 C-25.49621216 186.72483154 -25.49621216 186.72483154 -25.61987305 187.91064453 C-26.14168672 192.97955325 -26.60047091 198.05355992 -27.0546875 203.12890625 C-29.59392036 230.9535138 -35.05659015 257.68854604 -41.42773438 284.84716797 C-41.8908951 286.82513208 -42.35378911 288.80315868 -42.81640625 290.78125 C-43.15480782 292.22612793 -43.15480782 292.22612793 -43.50004578 293.70019531 C-45.18085125 300.95288571 -46.68432176 308.23128849 -48.02296448 315.55505371 C-49.32114562 322.41076452 -51.59960431 328.75183088 -54.0625 335.26171875 C-55.46701571 339.11756503 -56.256293 342.90204439 -57 346.9375 C-58.07735099 352.49000127 -59.22948961 355.46279065 -63.4375 359.25 C-64.4275 359.91 -65.4175 360.57 -66.4375 361.25 C-67.26962069 365.34126005 -67.58093112 368.30204735 -66.95532227 372.43676758 C-65.22926305 385.14743185 -66.82458559 396.89670976 -69.75 409.25 C-70.00902603 410.37805557 -70.00902603 410.37805557 -70.27328491 411.52890015 C-73.36881116 424.86706721 -77.9157133 436.92468871 -84.29931641 449.08178711 C-85.26731346 450.92579865 -86.17724256 452.80010494 -87.07421875 454.6796875 C-88.33860149 457.06353806 -89.50993653 458.70019259 -91.4375 460.5625 C-91.9325 461.05363281 -92.4275 461.54476563 -92.9375 462.05078125 C-96.98027665 465.28289696 -102.55432509 464.67834868 -107.4375 464.25 C-110.5 463.0625 -110.5 463.0625 -112.4375 461.25 C-113.69942242 457.25277547 -113.24466841 454.93810078 -111.8125 451.0625 C-109.53152004 444.12385467 -108.07598765 437.10435546 -106.6875 429.9375 C-106.35371338 428.25587769 -106.35371338 428.25587769 -106.01318359 426.5402832 C-104.89389107 420.64578152 -104.30216468 415.23858784 -104.4375 409.25 C-104.25316406 408.528125 -104.06882812 407.80625 -103.87890625 407.0625 C-103.27106601 404.56658965 -103.81884661 402.75087276 -104.375 400.25 C-105.42537306 394.48004528 -105.63419317 388.90719091 -105.625 383.0625 C-105.62556396 382.23169922 -105.62612793 381.40089844 -105.62670898 380.54492188 C-105.5673945 373.66716827 -105.11746271 366.94617239 -103.53759766 360.23779297 C-102.49238613 355.62429386 -101.64724823 350.98760646 -100.81797791 346.33106995 C-97.99862024 330.53710271 -94.52003271 314.93332169 -90.875 299.3125 C-86.27258232 279.60086523 -86.27258232 279.60086523 -82.03515625 259.80859375 C-81.86906357 259.00438492 -81.70297089 258.20017609 -81.53184509 257.37159729 C-80.78652082 253.61726266 -80.24278933 250.08184878 -80.4375 246.25 C-79.7775 246.25 -79.1175 246.25 -78.4375 246.25 C-78.39069092 245.66806885 -78.34388184 245.0861377 -78.2956543 244.48657227 C-77.68385127 237.62722833 -76.53056104 230.94962083 -75.25 224.1875 C-73.61533188 215.36369012 -72.1512846 206.53553094 -70.87890625 197.65234375 C-70.74831314 196.74171677 -70.61772003 195.83108978 -70.48316956 194.89286804 C-69.83649773 190.35986284 -69.20251496 185.82537851 -68.58129883 181.28881836 C-65.76562543 161.05951294 -65.76562543 161.05951294 -60.875 151.9375 C-59.56412079 149.4668398 -58.40601082 147.16088689 -57.47265625 144.51953125 C-57.13105469 143.77058594 -56.78945313 143.02164063 -56.4375 142.25 C-55.4475 141.92 -54.4575 141.59 -53.4375 141.25 C-51.85060436 139.24606179 -51.85060436 139.24606179 -50.4375 136.75 C-49.9425 135.9353125 -49.4475 135.120625 -48.9375 134.28125 C-44.75671228 125.83257481 -43.65241696 117.42682574 -42.5625 108.125 C-41.22731008 97.6157208 -39.57343677 88.02585055 -35.4375 78.25 C-35.19016113 77.62448242 -34.94282227 76.99896484 -34.68798828 76.35449219 C-32.67274678 71.36762339 -32.67274678 71.36762339 -30.4375 70.25 C-29.73677 68.26167862 -29.07661245 66.25897479 -28.4375 64.25 C-27.4632499 62.09235373 -26.46228231 59.94660916 -25.4375 57.8125 C-23.32951952 53.31890259 -21.56066688 49.07961757 -20.4375 44.25 C-21.9225 44.745 -21.9225 44.745 -23.4375 45.25 C-25.04269732 32.97641433 -25.04269732 32.97641433 -23.4375 28.25 C-21.33364705 26.24390183 -19.15066044 24.58027145 -16.76171875 22.92578125 C-11.92237927 19.50171827 -11.92237927 19.50171827 -9.78515625 14.15625 C-9.59507008 11.88563169 -9.40756935 9.61479545 -9.22265625 7.34375 C-7.93321269 2.26295746 -5.1216303 0.3724822 0 0 Z M-22.4375 40.25 C-21.4375 43.25 -21.4375 43.25 -21.4375 43.25 Z M26.5625 558.25 C27.5625 562.25 27.5625 562.25 27.5625 562.25 Z M27.5625 563.25 C28.5625 565.25 28.5625 565.25 28.5625 565.25 Z " fill="#050606" transform="translate(520.4375,121.75)"/>
<path d="M0 0 C2.12508244 3.18762365 2.5020163 5.26512223 3 9 C2.01 9.33 1.02 9.66 0 10 C-0.19412181 8.52168779 -0.38012131 7.04230684 -0.5625 5.5625 C-0.66691406 4.73878906 -0.77132813 3.91507813 -0.87890625 3.06640625 C-0.91886719 2.38449219 -0.95882813 1.70257813 -1 1 C-0.67 0.67 -0.34 0.34 0 0 Z " fill="#151516" transform="translate(497,157)"/>
<path d="M0 0 C0.33 0 0.66 0 1 0 C1 1.65 1 3.3 1 5 C0.67 5 0.34 5 0 5 C0 3.35 0 1.7 0 0 Z " fill="#19191A" transform="translate(417,472)"/>
<path d="M0 0 C0 3 0 3 0 3 Z " fill="#171718" transform="translate(544,664)"/>
<path d="" fill="#171718" transform="translate(0,0)"/>
<path d="" fill="#161716" transform="translate(0,0)"/>
<path d="" fill="#111113" transform="translate(0,0)"/>
<path d="M0 0 C0.66 0 1.32 0 2 0 C1.67 0.66 1.34 1.32 1 2 C0.67 1.34 0.34 0.68 0 0 Z " fill="#1B1B1B" transform="translate(419,457)"/>
<path d="" fill="#121212" transform="translate(0,0)"/>
<path d="" fill="#121111" transform="translate(0,0)"/>
<path d="" fill="#131213" transform="translate(0,0)"/>
<path d="M0 0 C0.33 0.66 0.66 1.32 1 2 C0.34 1.67 -0.32 1.34 -1 1 C-0.67 0.67 -0.34 0.34 0 0 Z " fill="#101310" transform="translate(561,389)"/>
<path d="" fill="#131413" transform="translate(0,0)"/>
<path d="" fill="#171617" transform="translate(0,0)"/>
<path d="" fill="#181819" transform="translate(0,0)"/>
<path d="" fill="#171617" transform="translate(0,0)"/>
<path d="" fill="#1A1B19" transform="translate(0,0)"/>
<path d="" fill="#191A18" transform="translate(0,0)"/>
<path d="" fill="#181818" transform="translate(0,0)"/>
<path d="" fill="#161718" transform="translate(0,0)"/>
<path d="" fill="#151616" transform="translate(0,0)"/>
<path d="" fill="#161516" transform="translate(0,0)"/>
<path d="" fill="#151617" transform="translate(0,0)"/>
<path d="" fill="#5A5A5B" transform="translate(0,0)"/>
<path d="" fill="#151517" transform="translate(0,0)"/>
<path d="" fill="#131213" transform="translate(0,0)"/>
<path d="" fill="#1F1C1D" transform="translate(0,0)"/>
<path d="" fill="#171718" transform="translate(0,0)"/>
<path d="" fill="#191B1B" transform="translate(0,0)"/>
<path d="" fill="#131211" transform="translate(0,0)"/>
<path d="" fill="#121212" transform="translate(0,0)"/>
<path d="" fill="#131312" transform="translate(0,0)"/>
<path d="" fill="#141413" transform="translate(0,0)"/>
<path d="" fill="#101213" transform="translate(0,0)"/>
<path d="" fill="#161413" transform="translate(0,0)"/>
<path d="" fill="#0F1011" transform="translate(0,0)"/>
<path d="" fill="#131215" transform="translate(0,0)"/>
<path d="" fill="#181616" transform="translate(0,0)"/>
<path d="" fill="#161717" transform="translate(0,0)"/>
<path d="" fill="#141413" transform="translate(0,0)"/>
<path d="" fill="#141416" transform="translate(0,0)"/>
<path d="" fill="#89898A" transform="translate(0,0)"/>
<path d="" fill="#828383" transform="translate(0,0)"/>
<path d="" fill="#848586" transform="translate(0,0)"/>
<path d="" fill="#8D8C8E" transform="translate(0,0)"/>
<path d="" fill="#848484" transform="translate(0,0)"/>
<path d="" fill="#838583" transform="translate(0,0)"/>
<path d="" fill="#868583" transform="translate(0,0)"/>
<path d="" fill="#838484" transform="translate(0,0)"/>
<path d="" fill="#838483" transform="translate(0,0)"/>
<path d="" fill="#808081" transform="translate(0,0)"/>
<path d="" fill="#888686" transform="translate(0,0)"/>
<path d="" fill="#898B8A" transform="translate(0,0)"/>
<path d="" fill="#818181" transform="translate(0,0)"/>
<path d="" fill="#6E7170" transform="translate(0,0)"/>
<path d="" fill="#817F81" transform="translate(0,0)"/>
<path d="" fill="#838383" transform="translate(0,0)"/>
<path d="" fill="#858482" transform="translate(0,0)"/>
<path d="" fill="#878987" transform="translate(0,0)"/>
<path d="" fill="#838883" transform="translate(0,0)"/>
<path d="" fill="#727272" transform="translate(0,0)"/>
<path d="" fill="#5B5C5B" transform="translate(0,0)"/>
<path d="" fill="#555657" transform="translate(0,0)"/>
<path d="" fill="#6F7271" transform="translate(0,0)"/>
<path d="" fill="#818282" transform="translate(0,0)"/>
<path d="" fill="#828383" transform="translate(0,0)"/>
<path d="" fill="#8A8A8A" transform="translate(0,0)"/>
<path d="" fill="#7E7F7D" transform="translate(0,0)"/>
<path d="" fill="#838283" transform="translate(0,0)"/>
<path d="" fill="#7F807F" transform="translate(0,0)"/>
<path d="" fill="#808080" transform="translate(0,0)"/>
<path d="" fill="#909090" transform="translate(0,0)"/>
<path d="" fill="#7F7F80" transform="translate(0,0)"/>
<path d="" fill="#767675" transform="translate(0,0)"/>
<path d="" fill="#595B5B" transform="translate(0,0)"/>
<path d="" fill="#7E7B7D" transform="translate(0,0)"/>
<path d="" fill="#8C8E8C" transform="translate(0,0)"/>
<path d="" fill="#8D8E8F" transform="translate(0,0)"/>
<path d="" fill="#7E807F" transform="translate(0,0)"/>
<path d="" fill="#909190" transform="translate(0,0)"/>
<path d="" fill="#8D8F8E" transform="translate(0,0)"/>
<path d="" fill="#6E6F6F" transform="translate(0,0)"/>
<path d="" fill="#878789" transform="translate(0,0)"/>
<path d="" fill="#232321" transform="translate(0,0)"/>
<path d="" fill="#807F7E" transform="translate(0,0)"/>
<path d="" fill="#232022" transform="translate(0,0)"/>
<path d="" fill="#7A7B7B" transform="translate(0,0)"/>
<path d="" fill="#7B7C7A" transform="translate(0,0)"/>
<path d="" fill="#7D7D7E" transform="translate(0,0)"/>
<path d="" fill="#7F8080" transform="translate(0,0)"/>
<path d="" fill="#3E403D" transform="translate(0,0)"/>
<path d="" fill="#1A1A1B" transform="translate(0,0)"/>
<path d="" fill="#898889" transform="translate(0,0)"/>
<path d="" fill="#615F61" transform="translate(0,0)"/>
<path d="" fill="#222121" transform="translate(0,0)"/>
<path d="" fill="#838383" transform="translate(0,0)"/>
<path d="" fill="#878989" transform="translate(0,0)"/>
<path d="" fill="#19191B" transform="translate(0,0)"/>
<path d="" fill="#7B7B7A" transform="translate(0,0)"/>
<path d="" fill="#4D4E4E" transform="translate(0,0)"/>
<path d="" fill="#545758" transform="translate(0,0)"/>
<path d="" fill="#7D7E7F" transform="translate(0,0)"/>
<path d="" fill="#1A171C" transform="translate(0,0)"/>
<path d="" fill="#6D6E6E" transform="translate(0,0)"/>
<path d="" fill="#7F7F80" transform="translate(0,0)"/>
<path d="" fill="#8A8A8A" transform="translate(0,0)"/>
<path d="" fill="#8E8C8C" transform="translate(0,0)"/>
<path d="" fill="#171619" transform="translate(0,0)"/>
<path d="" fill="#1E1F1F" transform="translate(0,0)"/>
<path d="" fill="#39393A" transform="translate(0,0)"/>
<path d="" fill="#8B8C8C" transform="translate(0,0)"/>
<path d="" fill="#484847" transform="translate(0,0)"/>
<path d="" fill="#8D8E8C" transform="translate(0,0)"/>
<path d="" fill="#1B1B1C" transform="translate(0,0)"/>
<path d="" fill="#838383" transform="translate(0,0)"/>
<path d="" fill="#909092" transform="translate(0,0)"/>
<path d="" fill="#8E8D8E" transform="translate(0,0)"/>
<path d="" fill="#7F7F7F" transform="translate(0,0)"/>
<path d="" fill="#7F8080" transform="translate(0,0)"/>
<path d="" fill="#8D8D8E" transform="translate(0,0)"/>
<path d="" fill="#8D8D8D" transform="translate(0,0)"/>
<path d="" fill="#6C6D6E" transform="translate(0,0)"/>
<path d="" fill="#8C8A8C" transform="translate(0,0)"/>
<path d="" fill="#8E8F8D" transform="translate(0,0)"/>
<path d="" fill="#808282" transform="translate(0,0)"/>
<path d="" fill="#171718" transform="translate(0,0)"/>
<path d="" fill="#181818" transform="translate(0,0)"/>
<path d="" fill="#1B1A19" transform="translate(0,0)"/>
<path d="" fill="#7C7D7F" transform="translate(0,0)"/>
<path d="" fill="#181718" transform="translate(0,0)"/>
<path d="" fill="#181818" transform="translate(0,0)"/>
<path d="" fill="#8F908D" transform="translate(0,0)"/>
<path d="" fill="#151716" transform="translate(0,0)"/>
<path d="" fill="#191819" transform="translate(0,0)"/>
<path d="" fill="#7C7A7C" transform="translate(0,0)"/>
<path d="" fill="#18191A" transform="translate(0,0)"/>
<path d="" fill="#909090" transform="translate(0,0)"/>
<path d="" fill="#656568" transform="translate(0,0)"/>
<path d="" fill="#969293" transform="translate(0,0)"/>
<path d="" fill="#1A181B" transform="translate(0,0)"/>
<path d="" fill="#1B1A19" transform="translate(0,0)"/>
<path d="" fill="#3C3A3C" transform="translate(0,0)"/>
<path d="" fill="#90918F" transform="translate(0,0)"/>
<path d="" fill="#1A1A1B" transform="translate(0,0)"/>
<path d="" fill="#777776" transform="translate(0,0)"/>
<path d="" fill="#171717" transform="translate(0,0)"/>
<path d="" fill="#161716" transform="translate(0,0)"/>
<path d="" fill="#1B1B1B" transform="translate(0,0)"/>
<path d="" fill="#191A1A" transform="translate(0,0)"/>
<path d="" fill="#777777" transform="translate(0,0)"/>
<path d="" fill="#18191A" transform="translate(0,0)"/>
<path d="" fill="#888889" transform="translate(0,0)"/>
<path d="" fill="#828383" transform="translate(0,0)"/>
<path d="" fill="#1A1A19" transform="translate(0,0)"/>
<path d="" fill="#777877" transform="translate(0,0)"/>
<path d="" fill="#909090" transform="translate(0,0)"/>
<path d="" fill="#808081" transform="translate(0,0)"/>
<path d="" fill="#828081" transform="translate(0,0)"/>
<path d="" fill="#1A1A19" transform="translate(0,0)"/>
<path d="" fill="#3C3E3C" transform="translate(0,0)"/>
<path d="" fill="#828383" transform="translate(0,0)"/>
<path d="" fill="#18191A" transform="translate(0,0)"/>
<path d="" fill="#858686" transform="translate(0,0)"/>
<path d="" fill="#1D1A1A" transform="translate(0,0)"/>
<path d="" fill="#838283" transform="translate(0,0)"/>
<path d="" fill="#949495" transform="translate(0,0)"/>
<path d="" fill="#17191A" transform="translate(0,0)"/>
<path d="" fill="#8F908F" transform="translate(0,0)"/>
<path d="" fill="#949596" transform="translate(0,0)"/>
<path d="" fill="#838283" transform="translate(0,0)"/>
<path d="" fill="#959695" transform="translate(0,0)"/>
<path d="" fill="#363736" transform="translate(0,0)"/>
<path d="" fill="#949594" transform="translate(0,0)"/>
<path d="" fill="#777778" transform="translate(0,0)"/>
<path d="" fill="#171A18" transform="translate(0,0)"/>
<path d="" fill="#181718" transform="translate(0,0)"/>
<path d="" fill="#181918" transform="translate(0,0)"/>
<path d="" fill="#181716" transform="translate(0,0)"/>
<path d="" fill="#939594" transform="translate(0,0)"/>
<path d="" fill="#959495" transform="translate(0,0)"/>
<path d="" fill="#181618" transform="translate(0,0)"/>
<path d="" fill="#181818" transform="translate(0,0)"/>
<path d="" fill="#525354" transform="translate(0,0)"/>
<path d="" fill="#959594" transform="translate(0,0)"/>
<path d="" fill="#7D7E7D" transform="translate(0,0)"/>
<path d="" fill="#7F8180" transform="translate(0,0)"/>
<path d="" fill="#878789" transform="translate(0,0)"/>
<path d="" fill="#79797A" transform="translate(0,0)"/>
<path d="" fill="#252828" transform="translate(0,0)"/>
<path d="" fill="#161617" transform="translate(0,0)"/>
<path d="" fill="#7B7A7B" transform="translate(0,0)"/>
<path d="" fill="#717073" transform="translate(0,0)"/>
<path d="" fill="#383839" transform="translate(0,0)"/>
<path d="" fill="#888788" transform="translate(0,0)"/>
<path d="" fill="#141516" transform="translate(0,0)"/>
<path d="" fill="#7B7B7B" transform="translate(0,0)"/>
<path d="" fill="#7A7A7B" transform="translate(0,0)"/>
<path d="" fill="#6B6B6C" transform="translate(0,0)"/>
<path d="" fill="#6E7070" transform="translate(0,0)"/>
<path d="" fill="#141418" transform="translate(0,0)"/>
<path d="" fill="#141717" transform="translate(0,0)"/>
<path d="" fill="#7B7B7B" transform="translate(0,0)"/>
<path d="" fill="#444645" transform="translate(0,0)"/>
<path d="" fill="#919290" transform="translate(0,0)"/>
<path d="" fill="#161616" transform="translate(0,0)"/>
<path d="" fill="#414243" transform="translate(0,0)"/>
<path d="" fill="#7A7B7A" transform="translate(0,0)"/>
<path d="" fill="#161516" transform="translate(0,0)"/>
<path d="" fill="#141517" transform="translate(0,0)"/>
<path d="" fill="#6D6F6D" transform="translate(0,0)"/>
<path d="" fill="#5D5E60" transform="translate(0,0)"/>
<path d="" fill="#616261" transform="translate(0,0)"/>
<path d="" fill="#909291" transform="translate(0,0)"/>
<path d="" fill="#161618" transform="translate(0,0)"/>
<path d="" fill="#8E8F8F" transform="translate(0,0)"/>
<path d="" fill="#171616" transform="translate(0,0)"/>
<path d="" fill="#8F8E8E" transform="translate(0,0)"/>
<path d="" fill="#171617" transform="translate(0,0)"/>
<path d="" fill="#5E5D5E" transform="translate(0,0)"/>
<path d="" fill="#242423" transform="translate(0,0)"/>
<path d="" fill="#212221" transform="translate(0,0)"/>
<path d="" fill="#7A7B79" transform="translate(0,0)"/>
<path d="" fill="#767577" transform="translate(0,0)"/>
<path d="" fill="#161518" transform="translate(0,0)"/>
<path d="" fill="#737574" transform="translate(0,0)"/>
<path d="" fill="#777675" transform="translate(0,0)"/>
<path d="" fill="#8D8C8B" transform="translate(0,0)"/>
<path d="" fill="#706F71" transform="translate(0,0)"/>
<path d="" fill="#171717" transform="translate(0,0)"/>
<path d="" fill="#8E918F" transform="translate(0,0)"/>
<path d="" fill="#171717" transform="translate(0,0)"/>
<path d="" fill="#6A6D6D" transform="translate(0,0)"/>
<path d="" fill="#161718" transform="translate(0,0)"/>
<path d="" fill="#757475" transform="translate(0,0)"/>
<path d="" fill="#171717" transform="translate(0,0)"/>
<path d="" fill="#777878" transform="translate(0,0)"/>
<path d="" fill="#151417" transform="translate(0,0)"/>
<path d="" fill="#777876" transform="translate(0,0)"/>
<path d="" fill="#161716" transform="translate(0,0)"/>
<path d="" fill="#737474" transform="translate(0,0)"/>
<path d="" fill="#898C8A" transform="translate(0,0)"/>
<path d="" fill="#151517" transform="translate(0,0)"/>
<path d="" fill="#6D6F6D" transform="translate(0,0)"/>
<path d="" fill="#6A6A6C" transform="translate(0,0)"/>
<path d="" fill="#5B5D5D" transform="translate(0,0)"/>
<path d="" fill="#2D2E2F" transform="translate(0,0)"/>
<path d="" fill="#5B5C5C" transform="translate(0,0)"/>
<path d="" fill="#696B6A" transform="translate(0,0)"/>
<path d="" fill="#2F3030" transform="translate(0,0)"/>
<path d="" fill="#717171" transform="translate(0,0)"/>
<path d="" fill="#717270" transform="translate(0,0)"/>
<path d="" fill="#1E2122" transform="translate(0,0)"/>
<path d="" fill="#6F6F6F" transform="translate(0,0)"/>
<path d="" fill="#6F6F6F" transform="translate(0,0)"/>
<path d="" fill="#1E1E1F" transform="translate(0,0)"/>
<path d="" fill="#696A6C" transform="translate(0,0)"/>
<path d="" fill="#151314" transform="translate(0,0)"/>
<path d="" fill="#6F7071" transform="translate(0,0)"/>
<path d="" fill="#131215" transform="translate(0,0)"/>
<path d="" fill="#131618" transform="translate(0,0)"/>
<path d="" fill="#898B8A" transform="translate(0,0)"/>
<path d="" fill="#131314" transform="translate(0,0)"/>
<path d="" fill="#727173" transform="translate(0,0)"/>
<path d="" fill="#6F7071" transform="translate(0,0)"/>
<path d="" fill="#121314" transform="translate(0,0)"/>
<path d="" fill="#787777" transform="translate(0,0)"/>
<path d="" fill="#807F80" transform="translate(0,0)"/>
<path d="" fill="#6F6F70" transform="translate(0,0)"/>
<path d="" fill="#707170" transform="translate(0,0)"/>
<path d="" fill="#212221" transform="translate(0,0)"/>
<path d="" fill="#171616" transform="translate(0,0)"/>
<path d="" fill="#151313" transform="translate(0,0)"/>
<path d="" fill="#898989" transform="translate(0,0)"/>
<path d="" fill="#6F7071" transform="translate(0,0)"/>
<path d="" fill="#121315" transform="translate(0,0)"/>
<path d="" fill="#1C1C1E" transform="translate(0,0)"/>
<path d="" fill="#1D1C1D" transform="translate(0,0)"/>
<path d="" fill="#1D1C1D" transform="translate(0,0)"/>
<path d="" fill="#181818" transform="translate(0,0)"/>
<path d="" fill="#121312" transform="translate(0,0)"/>
<path d="" fill="#6F7171" transform="translate(0,0)"/>
<path d="" fill="#1E1E1F" transform="translate(0,0)"/>
<path d="" fill="#6D6F71" transform="translate(0,0)"/>
<path d="" fill="#6D6D6B" transform="translate(0,0)"/>
<path d="" fill="#121112" transform="translate(0,0)"/>
<path d="" fill="#6E7171" transform="translate(0,0)"/>
<path d="" fill="#100F0F" transform="translate(0,0)"/>
<path d="" fill="#7E7D7E" transform="translate(0,0)"/>
<path d="" fill="#6D6F6E" transform="translate(0,0)"/>
<path d="" fill="#18191B" transform="translate(0,0)"/>
<path d="" fill="#696A6A" transform="translate(0,0)"/>
<path d="" fill="#6E6E6F" transform="translate(0,0)"/>
<path d="" fill="#7F8080" transform="translate(0,0)"/>
<path d="" fill="#696A6B" transform="translate(0,0)"/>
<path d="" fill="#191B1E" transform="translate(0,0)"/>
<path d="" fill="#727271" transform="translate(0,0)"/>
<path d="" fill="#1F1E1C" transform="translate(0,0)"/>
<path d="" fill="#161614" transform="translate(0,0)"/>
<path d="" fill="#1B1A1E" transform="translate(0,0)"/>
<path d="" fill="#121213" transform="translate(0,0)"/>
<path d="" fill="#707271" transform="translate(0,0)"/>
<path d="" fill="#6D6E6D" transform="translate(0,0)"/>
<path d="" fill="#5F6161" transform="translate(0,0)"/>
<path d="" fill="#141414" transform="translate(0,0)"/>
<path d="" fill="#141211" transform="translate(0,0)"/>
<path d="" fill="#706F70" transform="translate(0,0)"/>
<path d="" fill="#6E6E70" transform="translate(0,0)"/>
<path d="" fill="#6A6B69" transform="translate(0,0)"/>
<path d="" fill="#191A1A" transform="translate(0,0)"/>
<path d="" fill="#727172" transform="translate(0,0)"/>
<path d="" fill="#717072" transform="translate(0,0)"/>
<path d="" fill="#626463" transform="translate(0,0)"/>
<path d="" fill="#141213" transform="translate(0,0)"/>
<path d="" fill="#1C1B1B" transform="translate(0,0)"/>
<path d="" fill="#1B1A1A" transform="translate(0,0)"/>
<path d="" fill="#1A1919" transform="translate(0,0)"/>
<path d="" fill="#505052" transform="translate(0,0)"/>
<path d="" fill="#171516" transform="translate(0,0)"/>
<path d="" fill="#111013" transform="translate(0,0)"/>
<path d="" fill="#686868" transform="translate(0,0)"/>
<path d="" fill="#161516" transform="translate(0,0)"/>
<path d="" fill="#131414" transform="translate(0,0)"/>
<path d="" fill="#6D706F" transform="translate(0,0)"/>
<path d="" fill="#7C7B7C" transform="translate(0,0)"/>
<path d="" fill="#121214" transform="translate(0,0)"/>
<path d="" fill="#686B6C" transform="translate(0,0)"/>
<path d="" fill="#6F7070" transform="translate(0,0)"/>
<path d="" fill="#676969" transform="translate(0,0)"/>
<path d="" fill="#131212" transform="translate(0,0)"/>
<path d="" fill="#141413" transform="translate(0,0)"/>
<path d="" fill="#4F4F4F" transform="translate(0,0)"/>
<path d="" fill="#585756" transform="translate(0,0)"/>
<path d="" fill="#707073" transform="translate(0,0)"/>
<path d="" fill="#121212" transform="translate(0,0)"/>
<path d="" fill="#6E7070" transform="translate(0,0)"/>
<path d="" fill="#171716" transform="translate(0,0)"/>
<path d="" fill="#161213" transform="translate(0,0)"/>
<path d="" fill="#121212" transform="translate(0,0)"/>
<path d="" fill="#4F504F" transform="translate(0,0)"/>
<path d="" fill="#6F7071" transform="translate(0,0)"/>
<path d="" fill="#131513" transform="translate(0,0)"/>
<path d="" fill="#171517" transform="translate(0,0)"/>
<path d="" fill="#717272" transform="translate(0,0)"/>
<path d="" fill="#737374" transform="translate(0,0)"/>
<path d="" fill="#131414" transform="translate(0,0)"/>
<path d="" fill="#5C5B5B" transform="translate(0,0)"/>
<path d="" fill="#131312" transform="translate(0,0)"/>
<path d="" fill="#18181C" transform="translate(0,0)"/>
<path d="" fill="#808080" transform="translate(0,0)"/>
<path d="" fill="#161718" transform="translate(0,0)"/>
<path d="" fill="#707171" transform="translate(0,0)"/>
<path d="" fill="#828382" transform="translate(0,0)"/>
<path d="" fill="#6B6B6B" transform="translate(0,0)"/>
<path d="" fill="#191718" transform="translate(0,0)"/>
<path d="" fill="#141314" transform="translate(0,0)"/>
<path d="" fill="#121212" transform="translate(0,0)"/>
<path d="" fill="#7E7D7E" transform="translate(0,0)"/>
<path d="" fill="#181819" transform="translate(0,0)"/>
<path d="" fill="#131512" transform="translate(0,0)"/>
<path d="" fill="#17171A" transform="translate(0,0)"/>
<path d="" fill="#141313" transform="translate(0,0)"/>
<path d="" fill="#151616" transform="translate(0,0)"/>
<path d="" fill="#171719" transform="translate(0,0)"/>
<path d="" fill="#101112" transform="translate(0,0)"/>
<path d="" fill="#121215" transform="translate(0,0)"/>
<path d="" fill="#131415" transform="translate(0,0)"/>
<path d="" fill="#121115" transform="translate(0,0)"/>
<path d="" fill="#808080" transform="translate(0,0)"/>
<path d="" fill="#171819" transform="translate(0,0)"/>
<path d="" fill="#151413" transform="translate(0,0)"/>
<path d="" fill="#141215" transform="translate(0,0)"/>
<path d="" fill="#131412" transform="translate(0,0)"/>
<path d="" fill="#707170" transform="translate(0,0)"/>
<path d="" fill="#121113" transform="translate(0,0)"/>
<path d="" fill="#737575" transform="translate(0,0)"/>
<path d="" fill="#171616" transform="translate(0,0)"/>
<path d="" fill="#706F71" transform="translate(0,0)"/>
<path d="" fill="#67696B" transform="translate(0,0)"/>
<path d="" fill="#898A8B" transform="translate(0,0)"/>
<path d="" fill="#111111" transform="translate(0,0)"/>
<path d="" fill="#121211" transform="translate(0,0)"/>
<path d="" fill="#151619" transform="translate(0,0)"/>
<path d="" fill="#181819" transform="translate(0,0)"/>
<path d="" fill="#727473" transform="translate(0,0)"/>
<path d="" fill="#6A6B6B" transform="translate(0,0)"/>
<path d="" fill="#4B4C4C" transform="translate(0,0)"/>
<path d="" fill="#8A8B8C" transform="translate(0,0)"/>
<path d="" fill="#0F1010" transform="translate(0,0)"/>
<path d="" fill="#191B1A" transform="translate(0,0)"/>
<path d="" fill="#121211" transform="translate(0,0)"/>
<path d="" fill="#12130F" transform="translate(0,0)"/>
<path d="" fill="#141413" transform="translate(0,0)"/>
<path d="" fill="#0F100F" transform="translate(0,0)"/>
<path d="" fill="#121316" transform="translate(0,0)"/>
<path d="" fill="#151615" transform="translate(0,0)"/>
<path d="" fill="#0F100F" transform="translate(0,0)"/>
<path d="" fill="#100E0E" transform="translate(0,0)"/>
<path d="" fill="#111010" transform="translate(0,0)"/>
<path d="" fill="#0F100E" transform="translate(0,0)"/>
<path d="" fill="#6F6E70" transform="translate(0,0)"/>
<path d="" fill="#1B1A19" transform="translate(0,0)"/>
<path d="" fill="#707271" transform="translate(0,0)"/>
<path d="" fill="#494A4C" transform="translate(0,0)"/>
<path d="" fill="#898A89" transform="translate(0,0)"/>
<path d="" fill="#4A4949" transform="translate(0,0)"/>
<path d="" fill="#40403F" transform="translate(0,0)"/>
<path d="" fill="#141416" transform="translate(0,0)"/>
<path d="" fill="#767677" transform="translate(0,0)"/>
<path d="" fill="#20201F" transform="translate(0,0)"/>
<path d="" fill="#111313" transform="translate(0,0)"/>
<path d="" fill="#717472" transform="translate(0,0)"/>
<path d="" fill="#6E706F" transform="translate(0,0)"/>
<path d="" fill="#161418" transform="translate(0,0)"/>
<path d="" fill="#151415" transform="translate(0,0)"/>
<path d="" fill="#161618" transform="translate(0,0)"/>
<path d="" fill="#151515" transform="translate(0,0)"/>
<path d="" fill="#8F8E91" transform="translate(0,0)"/>
<path d="" fill="#161615" transform="translate(0,0)"/>
<path d="" fill="#707170" transform="translate(0,0)"/>
<path d="" fill="#676768" transform="translate(0,0)"/>
<path d="" fill="#21211E" transform="translate(0,0)"/>
<path d="" fill="#151417" transform="translate(0,0)"/>
<path d="" fill="#393838" transform="translate(0,0)"/>
<path d="" fill="#565858" transform="translate(0,0)"/>
<path d="" fill="#787878" transform="translate(0,0)"/>
<path d="" fill="#767676" transform="translate(0,0)"/>
<path d="" fill="#8C8C8A" transform="translate(0,0)"/>
<path d="" fill="#767877" transform="translate(0,0)"/>
<path d="" fill="#7E8080" transform="translate(0,0)"/>
<path d="" fill="#121315" transform="translate(0,0)"/>
<path d="" fill="#777877" transform="translate(0,0)"/>
<path d="" fill="#131414" transform="translate(0,0)"/>
<path d="" fill="#868787" transform="translate(0,0)"/>
<path d="" fill="#161616" transform="translate(0,0)"/>
<path d="" fill="#7F807E" transform="translate(0,0)"/>
<path d="" fill="#191A19" transform="translate(0,0)"/>
<path d="" fill="#8A8A8A" transform="translate(0,0)"/>
<path d="" fill="#565658" transform="translate(0,0)"/>
<path d="" fill="#131515" transform="translate(0,0)"/>
<path d="" fill="#191718" transform="translate(0,0)"/>
<path d="" fill="#161615" transform="translate(0,0)"/>
<path d="" fill="#272626" transform="translate(0,0)"/>
<path d="" fill="#737373" transform="translate(0,0)"/>
<path d="" fill="#737171" transform="translate(0,0)"/>
<path d="" fill="#1E1D1C" transform="translate(0,0)"/>
<path d="" fill="#555555" transform="translate(0,0)"/>
<path d="" fill="#747475" transform="translate(0,0)"/>
<path d="" fill="#202121" transform="translate(0,0)"/>
<path d="" fill="#201C23" transform="translate(0,0)"/>
<path d="" fill="#666665" transform="translate(0,0)"/>
<path d="" fill="#757677" transform="translate(0,0)"/>
<path d="" fill="#373736" transform="translate(0,0)"/>
<path d="" fill="#757576" transform="translate(0,0)"/>
<path d="" fill="#696B6A" transform="translate(0,0)"/>
<path d="" fill="#727574" transform="translate(0,0)"/>
<path d="" fill="#5B5C5C" transform="translate(0,0)"/>
<path d="" fill="#727072" transform="translate(0,0)"/>
<path d="" fill="#737776" transform="translate(0,0)"/>
<path d="" fill="#71706F" transform="translate(0,0)"/>
<path d="" fill="#545656" transform="translate(0,0)"/>
<path d="" fill="#656866" transform="translate(0,0)"/>
<path d="" fill="#646465" transform="translate(0,0)"/>
<path d="" fill="#707173" transform="translate(0,0)"/>
<path d="" fill="#505151" transform="translate(0,0)"/>
<path d="" fill="#555353" transform="translate(0,0)"/>
<path d="" fill="#77777A" transform="translate(0,0)"/>
<path d="" fill="#606262" transform="translate(0,0)"/>
<path d="" fill="#7E7F7F" transform="translate(0,0)"/>
<path d="" fill="#787879" transform="translate(0,0)"/>
<path d="" fill="#757576" transform="translate(0,0)"/>
<path d="" fill="#7A7B79" transform="translate(0,0)"/>
<path d="" fill="#868787" transform="translate(0,0)"/>
<path d="" fill="#858684" transform="translate(0,0)"/>
<path d="" fill="#777A78" transform="translate(0,0)"/>
<path d="" fill="#808081" transform="translate(0,0)"/>
<path d="" fill="#777A79" transform="translate(0,0)"/>
<path d="" fill="#7A7A7A" transform="translate(0,0)"/>
<path d="" fill="#727271" transform="translate(0,0)"/>
<path d="" fill="#7A7B7B" transform="translate(0,0)"/>
<path d="" fill="#818283" transform="translate(0,0)"/>
<path d="" fill="#626263" transform="translate(0,0)"/>
<path d="" fill="#5E5E5F" transform="translate(0,0)"/>
<path d="" fill="#5A5C5D" transform="translate(0,0)"/>
<path d="" fill="#868785" transform="translate(0,0)"/>
<path d="" fill="#7A797A" transform="translate(0,0)"/>
</svg>
