<?xml version="1.0" encoding="UTF-8"?>
<svg version="1.1" xmlns="http://www.w3.org/2000/svg" width="2276" height="796">
<path d="M0 0 C751.08 0 1502.16 0 2276 0 C2276 262.68 2276 525.36 2276 796 C1524.92 796 773.84 796 0 796 C0 533.32 0 270.64 0 0 Z " fill="#FEFEFE" transform="translate(0,0)"/>
<path d="M0 0 C0.89615787 -0.00205263 1.79231574 -0.00410527 2.71562991 -0.0062201 C5.74015889 -0.0119069 8.76464258 -0.01043078 11.78917599 -0.00901413 C13.97093332 -0.01159681 16.15269017 -0.0146097 18.33444637 -0.01801753 C24.3470087 -0.02610233 30.3595591 -0.02787793 36.37212622 -0.028615 C42.85017603 -0.03046301 49.32821961 -0.0380091 55.80626583 -0.04475021 C70.71923808 -0.05932326 85.63220905 -0.06486168 100.54518714 -0.06944216 C107.91454344 -0.07177773 115.28389895 -0.07538036 122.65325464 -0.07913754 C147.87889461 -0.09197404 173.10453414 -0.10269274 198.33017731 -0.10614014 C199.91394124 -0.10636177 201.49770518 -0.10658355 203.08146911 -0.10680549 C204.66906506 -0.10702613 206.256661 -0.10724661 207.84425694 -0.10746694 C211.02926068 -0.10790949 214.21426441 -0.1083566 217.39926815 -0.10880661 C218.18896488 -0.108916 218.97866162 -0.10902539 219.79228855 -0.1091381 C245.39464083 -0.11276822 270.99696479 -0.12868608 296.59930623 -0.15199697 C323.66672917 -0.17659675 350.73413592 -0.19031306 377.80157036 -0.19150805 C380.77337007 -0.19167951 383.74516978 -0.19189494 386.71696949 -0.19214249 C387.44871159 -0.19219826 388.18045369 -0.19225402 388.93436979 -0.19231148 C400.70739726 -0.19346186 412.48039565 -0.20448282 424.2534133 -0.21902954 C436.08923878 -0.23340086 447.92502383 -0.2363756 459.76085568 -0.22858956 C466.17225142 -0.2246794 472.58354939 -0.22563068 478.99493313 -0.23964691 C484.86556466 -0.25236364 490.73602473 -0.25120773 496.60665595 -0.2390562 C498.72919613 -0.23709534 500.85174837 -0.24019552 502.9742716 -0.24890056 C529.70291709 -0.35157141 529.70291709 -0.35157141 537.2613287 7.00642776 C537.9625787 7.66384964 538.6638287 8.32127151 539.3863287 8.99861526 C541.2613287 11.13142776 541.2613287 11.13142776 542.8238287 13.76424026 C544.18918312 16.38902637 544.18918312 16.38902637 547.2613287 18.13142776 C551.58020917 26.87029962 552.90682103 36.56705728 550.53085995 46.04549026 C548.68583553 51.39229573 546.22227875 56.42165483 543.6285162 61.44002151 C540.55206785 67.49622984 537.41146503 73.68101875 535.2613287 80.13142776 C534.6013287 80.13142776 533.9413287 80.13142776 533.2613287 80.13142776 C533.08367977 80.96891556 533.08367977 80.96891556 532.90244198 81.8233223 C532.18473781 84.40716662 531.16719852 86.64479803 530.0035162 89.06111526 C529.54589901 90.01502151 529.08828182 90.96892776 528.61679745 91.95174026 C527.88396542 93.46381058 527.88396542 93.46381058 527.1363287 95.00642776 C526.64003963 96.03767776 526.14375057 97.06892776 525.63242245 98.13142776 C522.38916003 104.85382623 519.09091506 111.54543849 515.6988287 118.19392776 C514.10030535 121.46047548 512.68345619 124.78479077 511.2613287 128.13142776 C509.54616414 131.77615244 507.75741498 135.33005762 505.6363287 138.75642776 C504.1429035 141.14044862 504.1429035 141.14044862 503.3238287 144.06892776 C502.33830988 146.90954081 501.093852 148.83969135 499.38242245 151.27205276 C497.98045998 153.59725881 497.02276046 155.98636209 496.0113287 158.50642776 C494.02795868 163.41936266 491.83451519 168.15597752 489.4488287 172.88142776 C489.1075494 173.55754105 488.7662701 174.23365433 488.41464901 174.93025589 C487.03087857 177.6616872 485.63998129 180.38945116 484.2481451 183.11677933 C479.97893943 191.4965307 475.96731797 199.93709391 472.19321346 208.55183792 C469.11823706 215.53829303 465.73169019 222.33203171 462.2613287 229.13142776 C461.02743829 231.5874073 459.80063532 234.04690379 458.5738287 236.50642776 C455.21966203 243.2147611 451.86549536 249.92309443 448.5113287 256.63142776 C447.99699276 257.6613887 447.48265682 258.69134964 446.95273495 259.75252151 C445.77711831 262.10103973 444.59776744 264.44735859 443.41367245 266.79158401 C439.69097573 274.17611848 436.05405461 281.59620846 432.5113287 289.06892776 C431.96448421 290.22147049 431.96448421 290.22147049 431.40659237 291.39729691 C429.23495148 295.99942675 427.1337645 300.62800987 425.08457088 305.28596878 C424.50664342 306.58150666 423.89574473 307.86259569 423.2613287 309.13142776 C422.6013287 309.13142776 421.9413287 309.13142776 421.2613287 309.13142776 C421.0344537 310.01830276 420.8075787 310.90517776 420.5738287 311.81892776 C417.47456144 319.64088798 409.35293425 324.11885535 402.08147335 327.69552994 C395.51601282 330.09399148 388.45750232 329.55785397 381.56479549 329.5354805 C379.9755674 329.54118948 378.38634341 329.54815578 376.79712582 329.55627823 C372.49735181 329.57416911 368.19778235 329.57304863 363.89798236 329.56733584 C360.29984767 329.56423725 356.70175188 329.57034408 353.10362273 329.57637459 C344.60936462 329.59040564 336.1152071 329.58887113 327.62094784 329.57747269 C318.87879093 329.56600028 310.13694112 329.58005558 301.39482468 329.60686916 C293.87096497 329.62907604 286.34720129 329.63565211 278.82331115 329.62979275 C274.3377235 329.62643298 269.85233253 329.62877239 265.36677265 329.64604378 C261.14522575 329.66158997 256.92413097 329.65747304 252.70260143 329.63873863 C251.16077348 329.63507348 249.61891145 329.63810015 248.07711506 329.64862442 C234.94397652 329.73136689 225.09786152 327.89259965 215.42148495 318.56892776 C212.30399623 315.05118281 210.22371076 311.37461614 208.2613287 307.13142776 C207.73925838 306.21103714 207.21718807 305.29064651 206.67929745 304.34236526 C203.63706421 297.45334125 203.72842104 288.86099705 206.0450201 281.71345901 C208.06014976 276.75498247 210.51646838 272.03729612 213.0684576 267.33699417 C214.7973416 264.14036338 216.39888819 260.88834401 218.0113287 257.63142776 C218.57207088 256.52025589 219.13281307 255.40908401 219.71054745 254.26424026 C221.57841479 250.49086594 223.30476164 246.66421695 225.0269537 242.82283401 C227.30350137 237.85909557 229.79867965 233.00469807 232.2613287 228.13142776 C233.57630261 225.50766319 234.88745774 222.88199456 236.1988287 220.25642776 C236.8810553 218.8918119 237.56334689 217.52722853 238.2457037 216.16267776 C238.58150448 215.4910762 238.91730526 214.81947464 239.26328182 214.12752151 C249.9488287 192.75642776 249.9488287 192.75642776 251.1441412 190.36970901 C251.87229394 188.91085754 252.59645481 187.45000467 253.3160162 185.98689651 C254.87253549 182.83162678 256.46528255 179.78725563 258.2613287 176.75642776 C259.79893621 174.11883949 260.93655097 171.48807383 262.0113287 168.63142776 C265.24869287 160.24254362 269.78108174 152.35658916 274.3238287 144.61189651 C276.2315282 141.18496052 277.75464971 137.7498616 279.2613287 134.13142776 C280.40547439 131.64158048 281.58633096 129.16933717 282.7613287 126.69392776 C288.36429927 114.78358806 292.59211396 104.75297179 288.3003912 91.71736526 C285.24454649 84.1122179 281.154972 77.68663913 274.2613287 73.13142776 C273.56265682 72.6454512 272.86398495 72.15947464 272.1441412 71.65877151 C265.70775236 67.96761562 259.45173852 67.640385 252.1988287 67.56892776 C250.81618832 67.54693314 250.81618832 67.54693314 249.40561581 67.52449417 C239.470423 67.67134147 230.44084203 71.14379452 223.2613287 78.13142776 C220.77354397 81.35352046 218.84846979 84.64719557 217.35117245 88.43220901 C215.98901152 91.8058764 214.34883451 95.01767673 212.6988287 98.25642776 C209.58423815 104.4221341 206.57734391 110.63114734 203.6363287 116.88142776 C200.27564002 124.01650476 196.8212667 131.09328504 193.2613287 138.13142776 C191.90464912 140.83850599 190.5518658 143.54752754 189.1988287 146.25642776 C188.51529923 147.62364741 187.83170714 148.99083574 187.14804745 150.35799026 C186.82497616 151.00413284 186.50190487 151.65027542 186.16904354 152.31599808 C184.94980526 154.75447464 183.73056698 157.1929512 182.5113287 159.63142776 C182.12718807 160.40099808 181.74304745 161.17056839 181.3472662 161.96345901 C180.627476 163.40045024 179.90355997 164.83538277 179.1753912 166.26814651 C178.83250057 166.94490433 178.48960995 167.62166214 178.1363287 168.31892776 C177.69933651 169.1755098 177.69933651 169.1755098 177.2535162 170.04939651 C176.41319112 171.81275582 175.63655396 173.60624813 174.87460995 175.40486526 C173.25805238 179.205892 171.43971287 182.88520398 169.5738287 186.56892776 C168.86283591 187.98166036 168.15190004 189.3944216 167.4410162 190.80720901 C166.89912655 191.88156204 166.89912655 191.88156204 166.34628963 192.97761917 C164.28717046 197.06527654 162.24411976 201.16098619 160.20102596 205.25667191 C158.59375619 208.47636168 156.97882235 211.69158003 155.34335995 214.89705276 C152.31456161 220.85427369 149.53855105 226.79198535 147.15585995 233.03767776 C145.8973482 235.98336464 144.03538471 238.47034375 142.2613287 241.13142776 C141.2331771 243.52468821 140.31208693 245.94980168 139.3785162 248.38142776 C137.31991896 253.44874405 134.74685666 258.26345825 132.2613287 263.13142776 C130.96472018 265.71229615 129.67562008 268.29689779 128.3863287 270.88142776 C126.2903558 275.07893854 124.19063128 279.27443697 122.07773495 283.46345901 C121.72114803 284.17212112 121.36456112 284.88078323 120.99716854 285.61091995 C120.32078585 286.95486433 119.64284026 288.29802381 118.96298885 289.64021683 C117.44303346 292.66433587 115.99410221 295.69506909 114.67148495 298.81111526 C113.53050227 301.49763958 112.33225005 304.09394524 111.0113287 306.69392776 C110.58464901 307.5382637 110.15796932 308.38259964 109.71835995 309.25252151 C109.23753963 310.20256058 108.75671932 311.15259964 108.2613287 312.13142776 C106.76885518 315.11302093 105.27844941 318.09563114 103.78891659 321.07869339 C102.53032248 323.59796021 101.26926237 326.11578079 99.9957037 328.62752151 C98.699853 331.18537606 97.42324687 333.71547796 96.38242245 336.38924026 C94.97512599 339.83147758 93.31495072 343.12878083 91.6363287 346.44392776 C90.91101748 347.88530846 90.18575845 349.3267154 89.46054745 350.76814651 C89.09235897 351.49823929 88.72417049 352.22833206 88.34482479 352.98054886 C86.70521864 356.23537765 85.07701654 359.49587617 83.4488287 362.75642776 C81.18232401 367.29509915 78.91010919 371.83078773 76.6285162 376.36189651 C71.72649919 386.11086136 66.90638052 395.88759443 62.26694393 405.76448441 C60.02989736 410.52543084 57.74137925 415.25162595 55.3316412 419.92830276 C54.45646331 421.72976382 53.65959819 423.56908502 52.8863287 425.41658401 C51.21457555 429.3579706 49.19020647 433.06649577 47.1363287 436.81892776 C43.1477083 444.20673358 39.62593732 451.74911364 36.26865292 459.44270706 C34.48124536 463.52087259 32.61814365 467.34189856 30.2613287 471.13142776 C29.56553416 473.32273311 29.56553416 473.32273311 29.2613287 475.13142776 C28.6013287 475.13142776 27.9413287 475.13142776 27.2613287 475.13142776 C27.1356451 476.11756058 27.1356451 476.11756058 27.00742245 477.12361526 C26.00805694 481.15247097 24.21635773 484.57855718 22.3238287 488.25642776 C21.96353573 488.97185745 21.60324276 489.68728714 21.23203182 490.42439651 C19.69199138 493.45909868 18.15388629 496.29259138 16.2613287 499.13142776 C15.9622662 500.0479512 15.6632037 500.96447464 15.3550787 501.90877151 C14.15756389 505.43716337 12.56969165 508.43665106 10.7613287 511.69392776 C7.26703451 518.09958566 4.02930792 524.60915688 0.8863287 531.19392776 C0.45771542 532.08603958 0.02910213 532.9781514 -0.41249943 533.89729691 C-5.77772418 545.20855124 -8.18488073 556.7661941 -4.2386713 569.00642776 C0.20692115 579.30719076 6.96113182 585.79702815 17.2613287 590.13142776 C26.70741173 593.32642644 38.07205776 591.74314748 46.83554745 587.56892776 C49.92462697 585.73836212 51.92089142 583.83755837 54.2613287 581.13142776 C54.9832037 580.78080276 55.7050787 580.43017776 56.4488287 580.06892776 C58.89381532 578.80427951 59.09217041 577.64430617 60.2613287 575.13142776 C61.18346411 573.28715693 62.10561418 571.44289341 63.02793026 569.59871292 C63.73743325 568.1793757 64.44640013 566.75977038 65.15488338 565.33992386 C66.67734047 562.29018742 68.20388526 559.24361495 69.75742245 556.20955276 C72.25657156 551.3202517 74.39559124 546.42503146 76.2691412 541.26033401 C77.32236426 539.00046564 78.48098129 537.84259069 80.2613287 536.13142776 C81.35705658 534.33739954 81.35705658 534.33739954 82.2613287 532.38142776 C82.5707037 531.74720901 82.8800787 531.11299026 83.1988287 530.45955276 C84.05451339 528.5845966 84.8763209 526.69419942 85.68710995 524.79939651 C91.01641386 512.38198616 97.10774488 500.32615357 103.2012701 488.27205276 C107.67008067 479.42423323 111.99642063 470.51700232 116.2613287 461.56892776 C120.12366378 453.47509917 124.10443376 445.49241035 128.39023495 437.61580276 C130.48330601 433.71805874 132.47746021 429.77919621 134.4488287 425.81892776 C134.78471004 425.14539261 135.12059139 424.47185745 135.46665096 423.77791214 C136.89390697 420.90849962 138.30806758 418.03439378 139.6988287 415.14705276 C145.10495571 403.99691581 151.04710662 397.19827056 162.99346066 392.55804825 C169.72456479 390.37526053 176.66268879 390.70394726 183.65659237 390.72737503 C185.20169217 390.72166394 186.74678777 390.71469684 188.29187679 390.7065773 C192.46783189 390.68870663 196.64357613 390.68980343 200.81955791 390.69551969 C204.31804724 390.69862216 207.81649669 390.69250695 211.31498033 390.68648094 C219.57781087 390.67245562 227.840538 390.67397874 236.10336971 390.68538284 C244.59612298 390.69684611 253.08855979 390.68281407 261.58127135 390.65598637 C268.89883099 390.63374575 276.21629192 390.6272112 283.53388292 390.63306278 C287.8926802 390.63641558 292.25127501 390.63413066 296.61004353 390.61681175 C300.71506677 390.60121206 304.81962629 390.60544043 308.92463207 390.6241169 C310.42004916 390.62776793 311.9155016 390.62479781 313.41088581 390.61423111 C324.03074679 390.54499657 336.3178843 390.9158252 345.1128912 397.68220901 C346.02812557 398.5935762 346.94335995 399.50494339 347.8863287 400.44392776 C348.82734432 401.34756058 349.76835995 402.25119339 350.7378912 403.18220901 C353.47824416 406.38494351 355.27185707 409.42614546 357.2613287 413.13142776 C357.9213287 414.12142776 358.5813287 415.11142776 359.2613287 416.13142776 C362.54603305 432.55494953 356.71836089 444.90483789 349.2613287 459.13142776 C348.27670839 461.04529853 347.29656067 462.9614874 346.3238287 464.88142776 C345.94355526 465.61877151 345.56328182 466.35611526 345.17148495 467.11580276 C344.27170106 469.1084572 343.71791113 470.99750565 343.2613287 473.13142776 C342.6013287 473.13142776 341.9413287 473.13142776 341.2613287 473.13142776 C341.1356451 474.38246292 341.1356451 474.38246292 341.00742245 475.65877151 C340.10844217 479.84303049 338.41790957 482.99870896 336.3238287 486.69392776 C334.04693565 490.77930116 331.92008408 494.7459512 330.2613287 499.13142776 C327.69014731 504.67115493 324.70940054 509.99733665 321.72617245 515.32283401 C320.0557582 518.52557492 318.67974959 521.80980922 317.2613287 525.13142776 C316.06941759 527.55839608 314.86398964 529.97288563 313.6363287 532.38142776 C310.11400618 539.35319146 306.74589435 546.39009856 303.42050838 553.45759964 C301.12984478 558.31949807 298.7936568 563.15016878 296.3316412 567.92830276 C295.46460916 569.71299645 294.67478678 571.53505986 293.9097662 573.36580276 C292.11549606 577.59410792 289.94047956 581.59178557 287.7613287 585.63142776 C283.42400181 593.76802528 279.39131282 602.02196527 275.44565487 610.35432816 C271.35945292 618.97036863 267.12028198 627.50334609 262.82773495 636.01814651 C261.20498212 639.23776038 259.60631054 642.46666531 258.03867245 645.71345901 C250.14571549 662.00282163 250.14571549 662.00282163 245.2613287 667.13142776 C243.0582037 667.88533401 243.0582037 667.88533401 241.2613287 668.13142776 C241.2613287 668.79142776 241.2613287 669.45142776 241.2613287 670.13142776 C239.53531491 670.95060419 237.805364 671.76148792 236.0738287 672.56892776 C235.11089901 673.0213887 234.14796932 673.47384964 233.15585995 673.94002151 C227.41625222 676.30247814 221.99761403 676.27785615 215.88176632 676.27186966 C214.93308215 676.27484078 213.98439799 676.2778119 213.00696582 676.28087306 C209.82587537 676.28954939 206.64482261 676.29106742 203.46372128 676.29256058 C201.18367082 676.29718952 198.90362113 676.30221428 196.62357235 676.30760574 C190.42711391 676.32072475 184.2306663 676.32717378 178.03419614 676.3316164 C174.16210265 676.33454804 170.29001211 676.33865303 166.41792011 676.34312057 C155.68878449 676.3552281 144.95965274 676.36561049 134.23051071 676.36899567 C133.54424852 676.36921523 132.85798632 676.3694348 132.1509283 676.36966102 C131.46306051 676.3698793 130.77519272 676.37009757 130.06648046 676.37032247 C128.67268964 676.37076593 127.27889881 676.37121249 125.88510799 676.37166214 C124.84806405 676.37199428 124.84806405 676.37199428 123.79006972 676.37233314 C112.59385606 676.37627904 101.39770756 676.39372772 90.20151905 676.41702166 C78.69552081 676.44076613 67.18956453 676.45294123 55.68354052 676.45436358 C49.22780644 676.45541116 42.77216428 676.46130897 36.31645298 676.4791832 C30.2417448 676.49567531 24.16719755 676.49781372 18.09247494 676.48904419 C15.86649996 676.48827442 13.6405163 676.49260853 11.41456318 676.50250244 C8.36812145 676.51524596 5.32224764 676.50933182 2.27580929 676.49892044 C1.40175735 676.50697685 0.52770541 676.51503325 -0.37283295 676.52333379 C-10.22744888 676.44494675 -19.28162622 673.716696 -26.7386713 667.13142776 C-35.64859579 657.36477977 -38.21289247 647.19386568 -38.11340141 634.21397591 C-38.11746214 633.16731854 -38.12152286 632.12066118 -38.12570664 631.04228693 C-38.13562355 627.5478453 -38.12424082 624.05380815 -38.1128931 620.55937576 C-38.11563467 618.02366727 -38.11968758 615.48795991 -38.12493676 612.95225537 C-38.13331024 607.44572426 -38.13239294 601.93931647 -38.12320423 596.43278885 C-38.10957799 588.24440834 -38.11317851 580.05609774 -38.12016283 571.86771211 C-38.13207951 557.24233301 -38.12701174 542.61699707 -38.11488456 527.99162036 C-38.10434516 515.19390098 -38.09980948 502.39619629 -38.10118008 489.5984726 C-38.10126411 488.74931793 -38.10134814 487.90016327 -38.10143471 487.02527664 C-38.10178697 483.57823662 -38.10217098 480.13119661 -38.10260029 476.6841566 C-38.10656441 444.35561303 -38.09385147 412.02709544 -38.07307373 379.69855931 C-38.05470127 350.97744511 -38.04889239 322.25635581 -38.05434513 293.53523636 C-38.05469156 291.69075485 -38.05503766 289.84627333 -38.05538342 288.00179182 C-38.05555442 287.08991394 -38.05572541 286.17803605 -38.05590159 285.2385255 C-38.05675513 280.64823477 -38.05757892 276.05794402 -38.05837059 271.46765327 C-38.05852767 270.56205474 -38.05868475 269.6564562 -38.05884659 268.72341528 C-38.0628364 244.7213039 -38.05736147 220.71919493 -38.0488593 196.717085 C-38.04795226 194.13455148 -38.04704661 191.55201795 -38.04614407 188.96948442 C-38.04554296 187.25631474 -38.04493434 185.54314506 -38.04431816 183.82997539 C-38.04009674 171.88653184 -38.03951854 159.94309299 -38.04142365 147.99964893 C-38.04386628 132.60976963 -38.03979736 117.21991557 -38.02421365 101.83004318 C-38.01616231 93.69124598 -38.01356269 85.55249082 -38.01885601 77.41369111 C-38.02218182 71.33960062 -38.01506219 65.26556996 -38.00383093 59.19148697 C-38.00089745 56.73205044 -38.00134402 54.27260713 -38.00547401 51.81317233 C-38.01057243 48.47442759 -38.00340371 45.13592513 -37.9931469 41.79719734 C-37.99754338 40.83891669 -38.00193987 39.88063603 -38.00646958 38.89331657 C-37.92097205 24.31372852 -37.92097205 24.31372852 -33.7386713 20.13142776 C-33.5117963 19.43017776 -33.2849213 18.72892776 -33.0511713 18.00642776 C-28.93413492 8.9881576 -21.66186117 4.76866595 -12.7386713 1.13142776 C-8.51385128 -0.09979126 -4.36754388 -0.00923712 0 0 Z " fill="#F8EE56" transform="translate(82.73867130279541,68.86857223510742)"/>
<path d="M0 0 C7.92328514 5.66948849 14.42755107 13.55838418 16.3125 23.3125 C16.40894935 26.05176476 16.4519279 28.76538041 16.44672108 31.50456333 C16.44907331 32.34162812 16.45142554 33.17869291 16.45384905 34.0411233 C16.46054113 36.86463242 16.46008076 39.68809555 16.45967102 42.51161194 C16.46296952 44.54900143 16.46669505 46.58639028 16.4708125 48.62377828 C16.48084227 54.23728415 16.48455087 59.85077932 16.48720181 65.46429288 C16.49110197 71.51289219 16.50068051 77.56148301 16.50941467 83.6100769 C16.52825255 97.53393836 16.53843641 111.45779901 16.54687535 125.38166952 C16.551082 132.26269805 16.55630398 139.1437257 16.56155988 146.02475348 C16.57945052 169.58018319 16.59444626 193.13561314 16.60188007 216.69104862 C16.60235483 218.16989701 16.60283072 219.6487454 16.60330774 221.12759378 C16.60354411 221.86096851 16.60378049 222.59434324 16.60402403 223.34994145 C16.60522522 227.06556969 16.60644067 230.78119793 16.60766602 234.49682617 C16.60790617 235.23420341 16.60814632 235.97158065 16.60839374 236.73130265 C16.61628578 260.63610231 16.6397154 284.54085235 16.67222196 308.44563034 C16.70652825 333.72005371 16.72623197 358.99444805 16.72952431 384.26889509 C16.72994185 387.04410042 16.73042141 389.81930572 16.73094749 392.59451103 C16.73107069 393.27784287 16.73119388 393.9611747 16.7313208 394.66521356 C16.73365188 405.65719431 16.74930671 416.64911738 16.76978934 427.64107758 C16.79005631 438.69275823 16.79518738 449.74438461 16.78601871 460.79608429 C16.78146874 466.78220837 16.78340102 472.76814534 16.80278015 478.75424385 C16.82037438 484.23633628 16.81944422 489.71810456 16.80388286 495.20020025 C16.80150113 497.18142469 16.80585955 499.16267136 16.81771151 501.14386178 C16.89449529 514.82891697 16.26267283 526.85263012 6.3125 537.3125 C-2.41761607 545.48965286 -11.45733868 548.93705121 -23.35168457 548.80697632 C-24.3781448 548.81180515 -25.40460504 548.81663398 -26.46217012 548.82160914 C-29.87673752 548.83281535 -33.2905452 548.81560951 -36.70507812 548.79833984 C-39.16320498 548.80048731 -41.62133083 548.80436739 -44.07945251 548.80984497 C-50.04795334 548.81851564 -56.0161605 548.808694 -61.98461711 548.79014437 C-68.94412391 548.76929824 -75.90358347 548.76951883 -82.86311561 548.77048953 C-95.28590645 548.77148923 -107.70859406 548.7532098 -120.13134766 548.72412109 C-132.16880168 548.69594942 -144.2061649 548.68177971 -156.24365234 548.68310547 C-157.35583428 548.68322534 -157.35583428 548.68322534 -158.49048454 548.68334763 C-159.23069349 548.68342834 -159.97090244 548.68350905 -160.73354197 548.6835922 C-174.46225328 548.68497428 -188.19092623 548.67317811 -201.91962507 548.65528577 C-206.76364311 548.64926984 -211.60765406 548.64712864 -216.45167542 548.64622116 C-222.97868494 548.64470906 -229.50561184 548.63196331 -236.03259468 548.61188889 C-238.42465699 548.60606116 -240.81673023 548.60358363 -243.20879936 548.60474396 C-246.48040466 548.60573016 -249.75174691 548.59436725 -253.02331543 548.57992554 C-253.96399384 548.58302274 -254.90467225 548.58611995 -255.87385607 548.589311 C-268.55169488 548.49724902 -277.04745027 545.64131433 -286.4375 537.0625 C-293.44940976 529.7244549 -295.79170793 521.15474065 -296.0625 511.25 C-296.11148437 510.04214844 -296.16046875 508.83429687 -296.2109375 507.58984375 C-295.5657964 496.86665686 -288.24227179 486.1495796 -283.48046875 476.703125 C-282.78897678 475.32388819 -282.0978479 473.9444693 -281.40705872 472.56488037 C-279.60042899 468.95918477 -277.78901991 465.35591208 -275.97650146 461.75317383 C-274.15530003 458.13115566 -272.33854848 454.5069075 -270.52148438 450.8828125 C-268.14736029 446.14854182 -265.77182088 441.41498974 -263.39339161 436.6828804 C-260.39367279 430.71429942 -257.39775619 424.74382096 -254.4074707 418.77050781 C-254.08145717 418.12004612 -253.75544363 417.46958443 -253.4195509 416.79941177 C-250.43719087 410.83792674 -247.5515188 404.83166039 -244.6875 398.8125 C-241.57164877 392.26407641 -238.41680259 385.73846171 -235.16601562 379.25585938 C-234.45236895 377.83061892 -233.73874723 376.40536598 -233.02514648 374.98010254 C-232.64627289 374.22373001 -232.26739929 373.46735748 -231.87704468 372.68806458 C-229.77994653 368.50008226 -227.68610704 364.31047076 -225.59179688 360.12109375 C-224.66802387 358.27351166 -223.74423606 356.42593698 -222.82043457 354.57836914 C-222.34574234 353.62898468 -221.87105011 352.67960022 -221.38197327 351.70144653 C-191.55456543 292.04663086 -191.55456543 292.04663086 -190.15070343 289.23896027 C-189.25136954 287.44025736 -188.35209121 285.64152666 -187.45287323 283.84276581 C-185.41985695 279.77614543 -183.38605962 275.70992172 -181.34985352 271.64489746 C-180.98645622 270.91908981 -180.62305893 270.19328217 -180.2486496 269.44548035 C-179.5852325 268.12055455 -178.92147473 266.79579923 -178.25727081 265.4712677 C-175.32792584 259.61958044 -172.49907448 253.72144088 -169.6875 247.8125 C-166.57137832 241.26350802 -163.41653067 234.73710651 -160.16601562 228.25366211 C-159.8229261 227.56839919 -159.47983658 226.88313627 -159.1263504 226.17710781 C-157.98049101 223.88869256 -156.83399225 221.60059825 -155.6875 219.3125 C-154.86331757 217.66682148 -154.03918149 216.02111974 -153.21508789 214.37539673 C-151.41706598 210.78483941 -149.61881116 207.19439885 -147.82043457 203.60401917 C-144.232484 196.44037808 -140.64653938 189.27573318 -137.06082916 182.1109705 C-134.35232323 176.6991807 -131.64306403 171.28777067 -128.93212891 165.87719727 C-126.28214805 160.58819597 -123.63419164 155.29818546 -120.98756409 150.00750542 C-119.99010178 148.01440589 -118.99194454 146.02165397 -117.99302673 144.02928352 C-112.98212278 134.03383348 -108.0034182 124.0327083 -103.31769562 113.87970829 C-101.31608124 109.55978053 -99.1533038 105.36877827 -96.875 101.1875 C-93.66899697 95.2739751 -90.72145946 89.26927114 -87.84765625 83.1875 C-81.64834111 70.15602905 -75.28120008 57.21064705 -68.85205078 44.29150391 C-67.56296081 41.69981443 -66.27982882 39.10529724 -65.00146484 36.50830078 C-63.42218927 33.30012646 -61.83291689 30.09709043 -60.23659515 26.89736557 C-59.35776674 25.12992594 -58.48867552 23.357655 -57.61993408 21.5852356 C-52.41895099 11.21048912 -47.04424734 2.96163491 -36.6875 -2.6875 C-35.76710938 -3.19796875 -35.76710938 -3.19796875 -34.828125 -3.71875 C-23.81917937 -8.79980183 -9.967058 -6.15809813 0 0 Z " fill="#000000" transform="translate(748.6875,196.6875)"/>
<path d="M0 0 C23.1 0 46.2 0 70 0 C78 26 78 26 81 37 C81.96517201 40.32380803 82.93811431 43.6438929 83.92578125 46.9609375 C84.3308918 48.32782211 84.3308918 48.32782211 84.7441864 49.72232056 C85.5991629 52.60688311 86.4556504 55.49099334 87.3125 58.375 C90.69249343 69.75356292 94.06237004 81.13499219 97.35546875 92.5390625 C97.60742508 93.40292572 97.85938141 94.26678894 98.11897278 95.15682983 C99.34368983 99.42246743 100.3876062 103.59308739 101 108 C103.25016847 107.1541964 103.25016847 107.1541964 103.94213867 104.58935547 C104.42517456 102.99438232 104.42517456 102.99438232 104.91796875 101.3671875 C105.28180664 100.17947754 105.64564453 98.99176758 106.02050781 97.76806641 C106.40961893 96.4704117 106.79861368 95.17272209 107.1875 93.875 C107.59010006 92.55235216 107.99342634 91.22992517 108.39746094 89.90771484 C109.41575092 86.56918168 110.42542975 83.22812254 111.43182373 79.88598633 C112.86453086 75.13030361 114.30808703 70.37789754 115.75 65.625 C116.03359375 64.68712646 116.3171875 63.74925293 116.609375 62.78295898 C118.22206164 57.47216609 119.90340605 52.19308298 121.6875 46.9375 C123.1740933 42.54485657 124.5601268 38.15248273 125.8125 33.6875 C129.02324698 22.40401774 132.54995974 11.21263084 136 0 C158.11 0 180.22 0 203 0 C203 64.02 203 128.04 203 194 C189.14 194 175.28 194 161 194 C161 143.84 161 93.68 161 42 C160.34 42 159.68 42 159 42 C158.87044922 43.37285156 158.87044922 43.37285156 158.73828125 44.7734375 C157.95103504 50.26348022 155.9928922 55.40214124 154.1875 60.625 C151.75342717 67.73998212 149.4070671 74.86480044 147.21655273 82.05859375 C145.66470471 87.11889861 144.04593332 92.15793589 142.43359375 97.19921875 C142.11112167 98.20778931 141.7886496 99.21635986 141.45640564 100.25549316 C140.11026689 104.4636679 138.7629175 108.67145438 137.4152832 112.87915039 C136.4206355 115.98560002 135.42707553 119.09239608 134.43359375 122.19921875 C134.13351913 123.13489182 133.83344452 124.07056488 133.52427673 125.03459167 C131.85198978 130.26538892 130.23469302 135.50774911 128.68812561 140.7771759 C127.82320091 143.57110688 126.81220183 146.2931343 125.74609375 149.015625 C124.75559376 151.65004383 123.8900142 154.3299574 123 157 C108.81 157 94.62 157 80 157 C77.39965571 149.19896714 74.84004971 141.38720712 72.3125 133.5625 C72.09412476 132.88692047 71.87574951 132.21134094 71.65075684 131.51528931 C68.25966279 121.01501543 64.97587029 110.48559684 61.75683594 99.93115234 C59.93812761 93.987643 58.05880439 88.07363179 56.0625 82.1875 C53.51156554 74.66179265 51.11321359 67.09000063 48.7494812 59.5038147 C48.33486641 58.17341242 47.91928585 56.84331072 47.50271606 55.51351929 C46.91803983 53.64537878 46.33783293 51.77584128 45.7578125 49.90625 C45.4189502 48.81634766 45.08008789 47.72644531 44.73095703 46.60351562 C44 44 44 44 44 42 C43.34 42 42.68 42 42 42 C42 91.83 42 141.66 42 193 C28.14 193 14.28 193 0 193 C0 129.31 0 65.62 0 0 Z " fill="#030303" transform="translate(1567,349)"/>
<path d="M0 0 C18.81 0 37.62 0 57 0 C67.42188889 27.43990998 77.72597722 54.91851115 87.88525391 82.45678711 C91.17491878 91.37177891 94.47314377 100.28301138 97.81809998 109.17741394 C100.53465194 116.40845249 103.19988873 123.65831864 105.86581421 130.90814209 C107.38986046 135.05246638 108.91564718 139.1961498 110.44140625 143.33984375 C110.74419998 144.16224548 111.04699371 144.98464722 111.35896301 145.83197021 C114.12730706 153.34922035 116.90478982 160.86305592 119.6875 168.375 C120.08485352 169.44790283 120.48220703 170.52080566 120.89160156 171.6262207 C121.26124023 172.62355225 121.63087891 173.62088379 122.01171875 174.6484375 C122.520979 176.03047363 122.520979 176.03047363 123.04052734 177.44042969 C123.65255882 179.07313656 124.28144017 180.69969359 124.93212891 182.31738281 C126.51174748 186.27241614 127 188.61163289 127 193 C112.48 193 97.96 193 83 193 C76.14358108 174.71621622 76.14358108 174.71621622 73.3125 165.5 C72.74812995 163.6764519 72.18175673 161.85352244 71.61328125 160.03125 C71.37391846 159.25330078 71.13455566 158.47535156 70.88793945 157.67382812 C69.69454058 154.08017829 68.32957239 150.54552637 67 147 C27.895 146.505 27.895 146.505 -12 146 C-12.495 148.97 -12.495 148.97 -13 152 C-13.66783292 154.11180055 -14.38608182 156.20808753 -15.14453125 158.2890625 C-15.57443359 159.47886719 -16.00433594 160.66867187 -16.44726562 161.89453125 C-16.89779297 163.12558594 -17.34832031 164.35664062 -17.8125 165.625 C-18.69526752 168.05423104 -19.57678948 170.4839151 -20.45703125 172.9140625 C-20.8845166 174.09258789 -21.31200195 175.27111328 -21.75244141 176.48535156 C-23.31695721 180.89293854 -24.77744252 185.33060294 -26.2097168 189.78271484 C-27 192 -27 192 -28 193 C-31.10251201 193.08874135 -34.1826812 193.11518455 -37.28515625 193.09765625 C-38.21597519 193.0962413 -39.14679413 193.09482635 -40.1058197 193.09336853 C-43.09141191 193.08775172 -46.07693029 193.0751964 -49.0625 193.0625 C-51.08137913 193.05748716 -53.10025943 193.05292388 -55.11914062 193.04882812 C-60.07945572 193.03777683 -65.03971532 193.02050095 -70 193 C-71.11076391 188.38369252 -70.58999902 186.10244017 -68.75 181.6875 C-68.04423828 179.95693359 -68.04423828 179.95693359 -67.32421875 178.19140625 C-66.88722656 177.13824219 -66.45023438 176.08507812 -66 175 C-65.51284694 173.71132418 -65.03216981 172.42015008 -64.5625 171.125 C-63.65081324 168.66651885 -62.68882269 166.23975843 -61.6953125 163.8125 C-58.85966721 156.87765762 -56.25533496 149.93841821 -53.9375 142.8125 C-51.95590025 136.72029843 -49.76499686 130.81770909 -47.21875 124.93359375 C-45.3891829 120.52973192 -43.85468784 116.02941816 -42.30859375 111.51953125 C-41.30567273 108.82212277 -40.23533639 106.2550131 -39.046875 103.640625 C-37.02333729 99.15443102 -35.38730072 94.5969028 -33.8125 89.9375 C-31.14610281 82.17970459 -28.33906397 74.48534907 -25.4375 66.8125 C-22.90273788 60.10783259 -20.40608816 53.3989099 -18.0625 46.625 C-15.5027242 39.25555951 -12.73504572 31.96965708 -9.9375 24.6875 C-9.31983765 23.07705811 -9.31983765 23.07705811 -8.68969727 21.43408203 C-5.90885674 14.23172169 -2.97279944 7.13471865 0 0 Z " fill="#030303" transform="translate(1936,349)"/>
<path d="M0 0 C96.99280576 0 96.99280576 0 112 7 C112.83015625 7.35835938 113.6603125 7.71671875 114.515625 8.0859375 C125.715363 13.20483616 133.12944633 20.93724019 137.9609375 32.25 C141.82213424 42.95430778 142.36074144 53.84132702 142.3125 65.125 C142.30926727 66.14963852 142.30926727 66.14963852 142.30596924 67.19497681 C142.20576982 86.98552093 140.09365833 103.65592469 125.76171875 118.5234375 C108.33525655 134.15056202 85.21836744 134.31838082 63.1875 134.125 C53.1946875 134.063125 53.1946875 134.063125 43 134 C43 153.8 43 173.6 43 194 C28.81 194 14.62 194 0 194 C0 129.98 0 65.96 0 0 Z " fill="#040404" transform="translate(1391,349)"/>
<path d="M0 0 C14.19 0 28.38 0 43 0 C43 23.76 43 47.52 43 72 C68.08 72 93.16 72 119 72 C119 48.24 119 24.48 119 0 C132.86 0 146.72 0 161 0 C161 63.69 161 127.38 161 193 C147.14 193 133.28 193 119 193 C119 164.95 119 136.9 119 108 C93.92 108 68.84 108 43 108 C43 136.05 43 164.1 43 193 C30.46 193 17.92 193 5 193 C1.21958171 180.1657239 -0.72500049 169.17716574 -0.56762695 155.87036133 C-0.56621132 154.15329531 -0.56701848 152.43622628 -0.56983948 150.71916199 C-0.57125496 146.12511655 -0.54217357 141.53174417 -0.50696969 136.9378531 C-0.47538928 132.11198112 -0.47275078 127.28608816 -0.46684265 122.46012878 C-0.45139622 113.35162837 -0.41049436 104.24343349 -0.3600952 95.13506669 C-0.30391272 84.752763 -0.27664306 74.37044354 -0.25161803 63.98802531 C-0.19956863 42.65847593 -0.10799416 21.32934455 0 0 Z " fill="#030303" transform="translate(884,349)"/>
<path d="M0 0 C38.94 0 77.88 0 118 0 C118 12.21 118 24.42 118 37 C93.25 37 68.5 37 43 37 C43 49.87 43 62.74 43 76 C66.1 76 89.2 76 113 76 C113 88.21 113 100.42 113 113 C89.9 113 66.8 113 43 113 C43 127.19 43 141.38 43 156 C69.07 156 95.14 156 122 156 C122 168.21 122 180.42 122 193 C81.74 193 41.48 193 0 193 C0 129.31 0 65.62 0 0 Z " fill="#050505" transform="translate(1088,349)"/>
<path d="M0 0 C14.19 0 28.38 0 43 0 C43 51.81 43 103.62 43 157 C68.08 157 93.16 157 119 157 C119 169.21 119 181.42 119 194 C79.73 194 40.46 194 0 194 C0 129.98 0 65.96 0 0 Z " fill="#040404" transform="translate(1244,349)"/>
<path d="M0 0 C13.86 0 27.72 0 42 0 C42 63.69 42 127.38 42 193 C28.14 193 14.28 193 0 193 C0 129.31 0 65.62 0 0 Z " fill="#010101" transform="translate(2086,349)"/>
<path d="M0 0 C39.61130353 0 39.61130353 0 49.44921875 8.36328125 C57.45372572 16.81136291 56.36733771 28.0978993 56.08447266 38.94335938 C55.75875248 46.87361026 53.25841969 52.95567519 48 59 C47.34 59 46.68 59 46 59 C46 59.66 46 60.32 46 61 C44.71839144 61.66556966 43.42377707 62.30608762 42.125 62.9375 C41.04605469 63.47697266 41.04605469 63.47697266 39.9453125 64.02734375 C28.28351748 67.87852009 10.51275354 66 0 66 C0 44.22 0 22.44 0 0 Z " fill="#FCFCFC" transform="translate(1434,383)"/>
<path d="M0 0 C2.35275269 0.16333008 2.35275269 0.16333008 5 1 C6.34036255 3.29956055 6.34036255 3.29956055 7.35595703 6.38671875 C7.74631134 7.53881836 8.13666565 8.69091797 8.53884888 9.87792969 C9.14223587 11.76366699 9.14223587 11.76366699 9.7578125 13.6875 C10.19005773 14.98791327 10.62415822 16.2877112 11.06002808 17.58691406 C12.20516707 21.01676806 13.32495901 24.45439109 14.43969727 27.89422607 C15.56852111 31.36283593 16.72068984 34.82365694 17.87109375 38.28515625 C19.93033442 44.49168075 21.96925447 50.70457861 23.98980713 56.92382812 C25.1215669 60.3701874 26.29818225 63.799742 27.50167847 67.22167969 C28 69 28 69 28 72 C10.84 72 -6.32 72 -24 72 C-23.2827395 66.97917647 -22.59083583 63.31611816 -20.9609375 58.67578125 C-20.54875977 57.49201904 -20.13658203 56.30825684 -19.71191406 55.08862305 C-19.26644544 53.8298554 -18.8208038 52.57114898 -18.375 51.3125 C-17.9183863 50.00906614 -17.46233666 48.70543455 -17.00683594 47.40161133 C-16.09807719 44.80333355 -15.18585156 42.20631662 -14.27050781 39.61035156 C-13.16896785 36.48014924 -12.07700462 33.34696393 -10.9921875 30.2109375 C-7.48304533 20.08033833 -3.8195814 10.01765671 0 0 Z " fill="#F9F9F9" transform="translate(1962,387)"/>
<path d="M0 0 C0.66 0 1.32 0 2 0 C1.53998088 2.14675591 1.03717273 3.93030113 0 5.875 C-2.68439238 11.57933381 -2.14174129 18.13634918 -2.12863445 24.2994194 C-2.13038749 25.34000795 -2.13214053 26.38059649 -2.13394669 27.45271802 C-2.13861655 30.95650863 -2.13613863 34.46025792 -2.13371277 37.96405029 C-2.13558024 40.49472947 -2.13788069 43.02540835 -2.14057809 45.55608678 C-2.14542833 51.06711254 -2.14714928 56.57812573 -2.14612198 62.08915329 C-2.14459804 70.28439066 -2.14875663 78.47961829 -2.1539966 86.67485377 C-2.16367279 102.16300474 -2.16648095 117.6511524 -2.16705366 133.13930604 C-2.16751303 145.09941474 -2.16957045 157.05952215 -2.17275429 169.01963043 C-2.17365182 172.46110765 -2.17454163 175.90258487 -2.17542917 179.34406209 C-2.17565021 180.19960099 -2.17587126 181.05513989 -2.17609901 181.93660421 C-2.18225414 206.00495052 -2.18619948 230.07329639 -2.18575573 254.14164352 C-2.18574015 255.04927144 -2.18572457 255.95689936 -2.18570852 256.89203116 C-2.18562541 261.49236783 -2.18552637 266.0927045 -2.18542381 270.69304118 C-2.18540387 271.60670012 -2.18538392 272.52035906 -2.18536337 273.46170464 C-2.18532294 275.30934625 -2.18528114 277.15698786 -2.18523798 279.00462947 C-2.18462521 307.75178928 -2.19213178 336.49893731 -2.20581055 365.24609375 C-2.22116887 397.53636465 -2.22977692 429.8266278 -2.22884732 462.11690259 C-2.22877269 465.55963723 -2.22872399 469.00237187 -2.22869301 472.44510651 C-2.22868135 473.29280767 -2.2286697 474.14050883 -2.22865769 475.01389791 C-2.22862691 488.65968834 -2.23501467 502.30546853 -2.24362527 515.95125592 C-2.25209937 529.66428096 -2.25309361 543.37729101 -2.24651595 557.09031722 C-2.24281867 565.23776928 -2.24465799 573.38517584 -2.25445829 581.53262309 C-2.26115677 587.61513493 -2.25740976 593.69759303 -2.24958507 599.7801055 C-2.24804362 602.24173008 -2.24989038 604.70335956 -2.25544515 607.16497836 C-2.26249233 610.50913855 -2.25722148 613.85306385 -2.24888897 617.19721603 C-2.25385715 618.15429891 -2.25882533 619.11138179 -2.26394406 620.09746718 C-2.2313724 626.27510911 -1.4253757 631.99026819 0 638 C-0.99 637.34 -1.98 636.68 -3 636 C-3.1875 632.875 -3.1875 632.875 -3 630 C-3.66 630 -4.32 630 -5 630 C-5.08559107 571.14172559 -5.16519426 512.28344488 -5.2117157 453.42512512 C-5.21240598 452.55401621 -5.21309627 451.6829073 -5.21380747 450.78540115 C-5.22877198 431.85389931 -5.24262289 412.92239681 -5.25532665 393.99089332 C-5.26156334 384.70690074 -5.2680461 375.42290834 -5.2746582 366.13891602 C-5.275312 365.21504674 -5.27596579 364.29117746 -5.2766394 363.33931214 C-5.29794648 333.39355444 -5.33550328 303.4478439 -5.3814861 273.50211476 C-5.42865325 242.72921924 -5.45942819 211.95634981 -5.46957495 181.18341875 C-5.47101573 176.83704973 -5.47264391 172.49068081 -5.47438622 168.1443119 C-5.47472333 167.28888341 -5.47506045 166.43345492 -5.47540778 165.55210435 C-5.48131657 151.78155056 -5.50450741 138.01107749 -5.53416017 124.24055662 C-5.56360179 110.39682594 -5.57483855 96.55317528 -5.56750689 82.70941439 C-5.56370375 74.48434237 -5.5738445 66.25956323 -5.60398772 58.03454409 C-5.6249603 51.89222429 -5.61979822 45.75018678 -5.60449447 39.60785607 C-5.60237966 37.12314662 -5.6087418 34.63841255 -5.62441591 32.15375163 C-5.64448839 28.7755765 -5.63366361 25.39883194 -5.61523914 22.02067852 C-5.62837421 21.05648584 -5.64150928 20.09229316 -5.65504238 19.09888253 C-5.56542412 11.82503506 -3.39341263 6.38980033 0 0 Z " fill="#FEFED6" transform="translate(48,86)"/>
<path d="M0 0 C0.90171658 -0.00290688 1.80343315 -0.00581376 2.73247448 -0.00880873 C5.75783318 -0.01611493 8.78298948 -0.00916241 11.80834675 -0.002285 C13.99768261 -0.00458918 16.18701771 -0.00776541 18.37635118 -0.01173949 C24.39566838 -0.02010188 30.4149223 -0.01595566 36.43423975 -0.00976706 C42.92437413 -0.00524957 49.4144975 -0.01222278 55.90462971 -0.0177269 C67.88415888 -0.02650379 79.86366798 -0.02537592 91.84319833 -0.01990396 C102.90796181 -0.01487457 113.97271788 -0.01355865 125.03748226 -0.01594925 C125.77118438 -0.01610202 126.5048865 -0.01625479 127.26082201 -0.01641219 C130.23905992 -0.01703485 133.21729782 -0.01767165 136.19553571 -0.01833172 C164.13524 -0.02445023 192.07493141 -0.01890163 220.01463371 -0.00813792 C244.8480847 0.00135632 269.68151519 0.0005016 294.51496601 -0.00905991 C322.40781526 -0.01976343 350.30065314 -0.0240193 378.19350415 -0.01783538 C381.16541246 -0.01719393 384.13732077 -0.01656825 387.10922909 -0.01594925 C388.20689093 -0.01571202 388.20689093 -0.01571202 389.32672775 -0.01546999 C400.38776479 -0.01319297 411.44879362 -0.0158594 422.50982952 -0.02090836 C435.08163172 -0.02661826 447.65340888 -0.02502228 460.22520825 -0.01434687 C466.64383601 -0.00907674 473.06242205 -0.00705619 479.48104954 -0.01364517 C485.34993349 -0.0195789 491.21873681 -0.01637236 497.08761338 -0.00569007 C499.21733929 -0.00344509 501.34707193 -0.0046167 503.47679355 -0.00944164 C506.35889007 -0.01547324 509.24070592 -0.00933617 512.12278748 0 C512.96058157 -0.00468233 513.79837567 -0.00936466 514.66155747 -0.01418889 C518.86032044 0.01322431 521.02468399 0.32770826 524.87263203 2.25168228 C257.57263203 2.74668228 257.57263203 2.74668228 -15.12736797 3.25168228 C-15.45736797 4.24168228 -15.78736797 5.23168228 -16.12736797 6.25168228 C-17.77736797 6.25168228 -19.42736797 6.25168228 -21.12736797 6.25168228 C-14.78164574 0.48284388 -8.18573138 -0.04613586 0 0 Z " fill="#F6EF75" transform="translate(83.12736797332764,68.74831771850586)"/>
<path d="M0 0 C0 0.66 0 1.32 0 2 C-0.66 2 -1.32 2 -2 2 C-2 2.66 -2 3.32 -2 4 C-3.36125 5.0828125 -3.36125 5.0828125 -4.75 6.1875 C-11.07977857 11.24833711 -13.86932195 18.7946291 -14.79677635 26.66400343 C-15.16902998 30.94295032 -15.14324915 35.21853267 -15.1386652 39.5109787 C-15.14150742 40.5501174 -15.14434964 41.5892561 -15.14727798 42.65988386 C-15.15560887 46.14659565 -15.15689194 49.63327414 -15.15821838 53.11999512 C-15.16278482 55.64302858 -15.16778497 58.16606129 -15.17318195 60.68909311 C-15.18392615 66.17694407 -15.19160412 71.66478613 -15.19658089 77.15264511 C-15.20399775 85.31286442 -15.2170834 93.47306779 -15.23132664 101.63327769 C-15.25512668 115.36063183 -15.27433528 129.0879888 -15.29092598 142.81535339 C-15.30736757 156.40692026 -15.32585057 169.99848182 -15.34705925 183.59004211 C-15.34837686 184.43516373 -15.34969446 185.28028535 -15.351052 186.15101672 C-15.3577541 190.44297249 -15.36449266 194.73492821 -15.37124526 199.0268839 C-15.41900674 229.42579506 -15.46219222 259.82471117 -15.50268555 290.22363281 C-15.54203442 319.75553752 -15.58345671 349.28743812 -15.62768555 378.81933594 C-15.62904808 379.72965783 -15.63041061 380.63997973 -15.63181442 381.57788714 C-15.64549981 390.71972419 -15.65922735 399.86156118 -15.67298577 409.00339813 C-15.70101222 427.62632918 -15.72875736 446.24926065 -15.7563324 464.87219238 C-15.7576006 465.72844231 -15.7588688 466.58469223 -15.76017542 467.46688912 C-15.84482955 524.64458609 -15.92290559 581.8222924 -16 639 C-16.33 639 -16.66 639 -17 639 C-17.03423307 580.59016696 -17.06607478 522.1803329 -17.08468628 463.77049255 C-17.08496239 462.90615622 -17.08523851 462.04181988 -17.08552299 461.15129153 C-17.09150865 442.36741915 -17.09704904 423.58354666 -17.10213066 404.79967401 C-17.10462536 395.58821038 -17.10721846 386.37674679 -17.10986328 377.1652832 C-17.1101248 376.24862662 -17.11038632 375.33197004 -17.11065576 374.38753598 C-17.11918008 344.67032894 -17.13420392 314.9531295 -17.15259444 285.23592706 C-17.1714571 254.70037497 -17.1837703 224.16482709 -17.18782998 193.62926927 C-17.1884063 189.3173953 -17.18905757 185.00552134 -17.18975449 180.69364738 C-17.18988933 179.8449998 -17.19002418 178.99635221 -17.19016311 178.12198803 C-17.19252753 164.45521234 -17.20180631 150.78844966 -17.21366407 137.12167928 C-17.2254347 123.38553703 -17.22993692 109.64940769 -17.22700275 95.91326059 C-17.22548038 87.7500747 -17.22954802 79.58693599 -17.24159509 71.42375861 C-17.24997308 65.33106346 -17.24792515 59.23841907 -17.24179779 53.14571928 C-17.24095072 50.67854862 -17.2435054 48.21137401 -17.24976636 45.74421114 C-17.25777326 42.3948942 -17.25347754 39.04580929 -17.24609566 35.69649601 C-17.25134968 34.73507103 -17.25660371 33.77364605 -17.26201695 32.78308699 C-17.18916294 18.18916294 -17.18916294 18.18916294 -13 14 C-12.773125 13.29875 -12.54625 12.5975 -12.3125 11.875 C-10.19363638 7.23367968 -5.65495639 0 0 0 Z " fill="#F1EC88" transform="translate(62,75)"/>
<path d="M0 0 C1.67187881 0.24377963 1.67187881 0.24377963 3.37753296 0.49248409 C8.24818368 1.09730347 13.05687403 1.136142 17.95947266 1.12025452 C18.93410996 1.12110894 19.90874727 1.12196337 20.91291904 1.12284368 C24.16331918 1.1244846 27.41366716 1.11899991 30.6640625 1.11352539 C33.00018818 1.11324319 35.33631395 1.11340189 37.67243958 1.1139679 C44.00441631 1.1142546 50.33637407 1.10837834 56.66834641 1.10139394 C62.61829479 1.09577327 68.56824245 1.09477028 74.51819313 1.09374207 C86.29907894 1.09155632 98.0799578 1.08490917 109.86083984 1.07543945 C121.30126918 1.06625299 132.74169662 1.0591782 144.18212891 1.05493164 C144.88794507 1.05466892 145.59376123 1.05440619 146.32096577 1.05413551 C149.86202557 1.05283042 153.40308538 1.05156673 156.9441452 1.05032361 C186.29610128 1.03996585 215.64805056 1.0222859 245 1 C244.67 1.99 244.34 2.98 244 4 C213.92677243 4.06844864 183.85354753 4.12153464 153.78025925 4.15319599 C150.22923846 4.15694808 146.67821782 4.16083105 143.12719727 4.16479492 C142.06678797 4.16597532 142.06678797 4.16597532 140.98495627 4.16717956 C129.54067611 4.18023086 118.0964412 4.20388317 106.65218788 4.23145839 C94.90793802 4.25952029 83.16371185 4.27617792 71.41942984 4.28226548 C64.82342278 4.28617902 58.22751832 4.29538741 51.63154411 4.31719017 C45.42395646 4.33754301 39.21651373 4.34383616 33.00889587 4.33932304 C30.73005956 4.34014877 28.45121843 4.34612146 26.17241096 4.35761642 C23.0611685 4.37254142 19.95047326 4.36895326 16.83921814 4.36076355 C15.93745328 4.36950207 15.03568843 4.3782406 14.10659736 4.38724393 C8.64764485 4.34840291 4.87137728 3.49466397 0 1 C0 0.67 0 0.34 0 0 Z " fill="#FEFEDA" transform="translate(67,743)"/>
<path d="M0 0 C1.54509981 -0.00571109 3.0901954 -0.01267819 4.63528442 -0.02079773 C8.81123952 -0.0386684 12.98698376 -0.0375716 17.16296554 -0.03185534 C20.66145487 -0.02875287 24.15990432 -0.03486808 27.65838796 -0.04089409 C35.92121851 -0.05491941 44.18394563 -0.05339629 52.44677734 -0.04199219 C60.93953061 -0.03052892 69.43196743 -0.04456096 77.92467898 -0.07138866 C85.24223862 -0.09362928 92.55969955 -0.10016383 99.87729055 -0.09431225 C104.23608783 -0.09095945 108.59468264 -0.09324437 112.95345116 -0.11056328 C117.0584744 -0.12616297 121.16303392 -0.1219346 125.2680397 -0.10325813 C126.76345679 -0.0996071 128.25890923 -0.10257722 129.75429344 -0.11314392 C139.50916599 -0.1767393 148.50257784 0.71338411 157.60473633 4.40405273 C157.93473633 5.06405273 158.26473633 5.72405273 158.60473633 6.40405273 C158.0246582 6.2712793 157.44458008 6.13850586 156.84692383 6.00170898 C156.06575195 5.82510742 155.28458008 5.64850586 154.47973633 5.46655273 C153.7140332 5.2925293 152.94833008 5.11850586 152.15942383 4.93920898 C147.04380234 3.86758797 142.21788777 3.27803108 136.98344421 3.27033997 C135.00904861 3.26394249 135.00904861 3.26394249 132.99476624 3.25741577 C131.54794309 3.25776524 130.10111996 3.25822674 128.65429688 3.25878906 C127.12123534 3.25579485 125.58817455 3.25239172 124.05511475 3.24861145 C119.90003554 3.23979363 115.74497695 3.23743426 111.58988929 3.23679566 C108.99103886 3.23608387 106.39219363 3.23394709 103.7933445 3.23129845 C94.71850885 3.22205217 85.64368786 3.21796264 76.56884766 3.21875 C68.12329728 3.21935051 59.67781083 3.20880207 51.23227662 3.19300634 C43.97007628 3.17991009 36.70789678 3.17456698 29.44568473 3.17520541 C25.11332532 3.1754598 20.78102275 3.17264147 16.44867516 3.16202736 C12.37173846 3.15231132 8.29491252 3.15229113 4.2179718 3.15954399 C2.7269048 3.1605855 1.23583078 3.15825283 -0.25522423 3.15218353 C-14.20493045 2.67514936 -14.20493045 2.67514936 -26.39526367 8.40405273 C-27.19963867 8.69280273 -28.00401367 8.98155273 -28.83276367 9.27905273 C-32.13051458 10.72684582 -33.95609845 12.77725942 -36.39526367 15.40405273 C-37.72859701 16.73738607 -39.06193034 18.0707194 -40.39526367 19.40405273 C-37.98300058 11.72867017 -31.25021308 7.07205198 -24.39526367 3.40405273 C-16.52243193 -0.24068265 -8.4885286 -0.02843438 0 0 Z " fill="#F8F077" transform="translate(266.395263671875,459.595947265625)"/>
<path d="M0 0 C2.33294775 -0.04241723 4.66702567 -0.04092937 7 0 C7.33 0.33 7.66 0.66 8 1 C13.51541581 2.02660169 18.8990929 2.15190064 24.49754333 2.15821838 C25.43457425 2.16315636 26.37160516 2.16809434 27.33703095 2.17318195 C30.46614066 2.18849832 33.59522994 2.19690165 36.72436523 2.20532227 C38.97167642 2.2149054 41.21898581 2.22491573 43.46629333 2.23532104 C49.56071433 2.262329 55.65514304 2.28336082 61.74959064 2.30332303 C68.12108432 2.32520793 74.49255434 2.35258437 80.86402893 2.37937927 C91.55607108 2.42360404 102.24812076 2.46444497 112.94018555 2.50268555 C123.95093738 2.54207521 134.9616784 2.5835097 145.97241211 2.62768555 C146.65160804 2.63040982 147.33080396 2.63313409 148.03058159 2.63594092 C151.43805553 2.64962097 154.8455293 2.66334113 158.253003 2.67708123 C186.50197944 2.79093891 214.75097952 2.89769955 243 3 C243 3.33 243 3.66 243 4 C213.48741446 4.06849057 183.97483269 4.12155626 154.46218432 4.15319599 C150.97511494 4.15694795 147.48804571 4.16083093 144.00097656 4.16479492 C143.30678642 4.16558185 142.61259629 4.16636878 141.89737009 4.16717956 C130.66851147 4.18022075 119.43969911 4.20386747 108.2108679 4.23145839 C96.68243346 4.25954847 85.1540315 4.27595942 73.6255635 4.28226548 C67.15297974 4.28617417 60.68050075 4.29535177 54.20795059 4.31719017 C48.11279917 4.33758815 42.01779545 4.34382703 35.92261314 4.33932304 C33.68857584 4.34014675 31.45453348 4.34609252 29.22052574 4.35761642 C26.16287955 4.37261217 23.10578605 4.36892764 20.04812622 4.36076355 C19.17066368 4.36950207 18.29320114 4.3782406 17.38914883 4.38724393 C11.17728091 4.34262272 5.85157639 3.05309528 0 1 C0 0.67 0 0.34 0 0 Z " fill="#F1E987" transform="translate(65,741)"/>
<path d="M0 0 C0.68622438 -0.00453111 1.37244877 -0.00906223 2.07946783 -0.01373065 C4.3662449 -0.0263353 6.65278261 -0.02475687 8.93959045 -0.02310181 C10.5842723 -0.02908943 12.22895134 -0.03589551 13.87362671 -0.04345703 C18.33229199 -0.06109808 22.79088047 -0.06581154 27.24957728 -0.0670886 C30.03669896 -0.06851156 32.8238012 -0.07278384 35.61091805 -0.07808304 C45.33832664 -0.09657534 55.06568048 -0.10475444 64.79310608 -0.10317993 C73.85452131 -0.10197797 82.91569858 -0.1230931 91.97705358 -0.15466726 C99.76321816 -0.18082943 107.54930499 -0.19154729 115.33551317 -0.19026911 C119.98309837 -0.18975957 124.6304719 -0.19543903 129.27801323 -0.21662521 C133.64887884 -0.23600724 138.0193308 -0.23613243 142.39021111 -0.22159195 C143.99177658 -0.21950287 145.59336796 -0.22421071 147.19488907 -0.23631287 C149.386513 -0.25179825 151.57671623 -0.24243764 153.76831055 -0.22705078 C155.60527701 -0.22868508 155.60527701 -0.22868508 157.4793539 -0.2303524 C161.82819999 0.39380465 164.27720295 1.89877143 167.94764709 4.26742554 C165.94764709 5.26742554 165.94764709 5.26742554 163.89809608 4.72192097 C163.04204466 4.43524146 162.18599323 4.14856195 161.30400085 3.85319519 C153.9833132 1.76827101 146.78318782 1.85341799 139.24598694 1.89511108 C137.69248207 1.89267812 136.13897877 1.88895392 134.58547974 1.88404846 C130.39755887 1.87470647 126.20987446 1.88400727 122.02197218 1.89738059 C117.62330598 1.90876476 113.22465023 1.90458233 108.82597351 1.90263367 C101.44396641 1.90175307 94.06205157 1.91278348 86.68006897 1.9312439 C78.16226228 1.95242359 69.64459045 1.95591663 61.12676275 1.94968194 C52.90787638 1.94397559 44.68903719 1.9496479 36.47015762 1.96085548 C32.98314664 1.96548305 29.49616467 1.96638336 26.00915146 1.96426964 C21.90011811 1.96237764 17.79122087 1.97056029 13.68221855 1.98633003 C12.1798668 1.99055008 10.67750118 1.9914389 9.1751461 1.98863983 C1.5165649 1.97654173 -5.62801492 2.20313665 -13.05235291 4.26742554 C-13.05235291 3.60742554 -13.05235291 2.94742554 -13.05235291 2.26742554 C-8.55016795 0.53763237 -4.81232075 0.01317474 0 0 Z " fill="#FEFEDB" transform="translate(255.05235290527344,458.7325744628906)"/>
<path d="M0 0 C1.73297585 0.48513565 1.73297585 0.48513565 3.5009613 0.98007202 C10.58253217 2.54012883 17.77264618 2.30924677 24.98461914 2.31884766 C26.59184263 2.32815859 28.19906133 2.33832898 29.80627441 2.34928894 C34.14650203 2.37647167 38.48669739 2.39170338 42.8269875 2.40471697 C47.37138498 2.42039908 51.91571712 2.447173 56.46006775 2.4727478 C65.0551986 2.51944591 73.65034188 2.55623331 82.24553436 2.58942068 C92.03519828 2.62770558 101.82479642 2.67709899 111.6144048 2.72740483 C131.74288789 2.83059124 151.87141268 2.91989469 172 3 C172 3.33 172 3.66 172 4 C150.31228129 4.07005871 128.62458123 4.1229728 106.93677235 4.15543652 C96.86690808 4.17091014 86.79711409 4.19200916 76.72729492 4.22631836 C67.95117814 4.25620551 59.17511225 4.2755714 50.39894599 4.28226548 C45.75135638 4.2861789 41.10391238 4.29538629 36.4563694 4.31719017 C32.08238515 4.3375445 27.70860658 4.34383593 23.33457947 4.33932304 C21.72894867 4.34014872 20.12331103 4.34612069 18.51772118 4.35761642 C16.32530747 4.37254441 14.13367011 4.36895299 11.9412384 4.36076355 C10.10087871 4.36491162 10.10087871 4.36491162 8.22334003 4.36914349 C4.72329996 3.96831175 2.80586796 3.09125934 0 1 C0 0.67 0 0.34 0 0 Z " fill="#FFFCC8" transform="translate(308,395)"/>
<path d="M0 0 C3.93971639 7.75131193 3.78494134 14.82508451 1.12109375 23.0078125 C-0.31608446 26.84362613 -1.87883145 30.61365113 -3.5 34.375 C-3.79656494 35.06529297 -4.09312988 35.75558594 -4.39868164 36.46679688 C-5.59252134 39.16424712 -6.75505399 41.67382189 -8.53125 44.0390625 C-10.15785322 46.21075085 -11.08836614 48.45730997 -12.11181641 50.95751953 C-13.89873915 55.0667542 -16.08080584 58.98557016 -18.1875 62.9375 C-18.65091797 63.81212891 -19.11433594 64.68675781 -19.59179688 65.58789062 C-20.72541673 67.72657551 -21.86153101 69.86389366 -23 72 C-23.33 70.68 -23.66 69.36 -24 68 C-23.34 68 -22.68 68 -22 68 C-22 66.68 -22 65.36 -22 64 C-21.34 64 -20.68 64 -20 64 C-20 62.68 -20 61.36 -20 60 C-19.34 60 -18.68 60 -18 60 C-17.855625 59.4225 -17.71125 58.845 -17.5625 58.25 C-17.04166667 56.16666667 -16.52083333 54.08333333 -16 52 C-15.34 52 -14.68 52 -14 52 C-14 50.68 -14 49.36 -14 48 C-13.34 48 -12.68 48 -12 48 C-12 46.68 -12 45.36 -12 44 C-11.34 44 -10.68 44 -10 44 C-9.855625 43.4225 -9.71125 42.845 -9.5625 42.25 C-9.04166667 40.16666667 -8.52083333 38.08333333 -8 36 C-7.34 36 -6.68 36 -6 36 C-6 34.68 -6 33.36 -6 32 C-5.34 32 -4.68 32 -4 32 C-3.896875 31.360625 -3.79375 30.72125 -3.6875 30.0625 C-3 27 -3 27 -2.265625 25.296875 C1.10923883 17.20993713 0.25025248 8.59200193 0 0 Z " fill="#FEFDD6" transform="translate(371,160)"/>
<path d="M0 0 C0.66 0 1.32 0 2 0 C3.4375 1.72265625 3.4375 1.72265625 5 4.0625 C5.515625 4.81660156 6.03125 5.57070312 6.5625 6.34765625 C9.79234537 12.30707203 10.3201457 18.00792263 10.25 24.625 C10.25773437 25.36234375 10.26546875 26.0996875 10.2734375 26.859375 C10.2585497 31.01307115 9.85899333 34.26725943 8 38 C7.34 38 6.68 38 6 38 C6.144375 37.3709375 6.28875 36.741875 6.4375 36.09375 C9.46403531 22.13805939 6.74838049 12.53651711 0 0 Z " fill="#F6EF7A" transform="translate(365,148)"/>
<path d="M0 0 C0.58203125 1.84765625 0.58203125 1.84765625 1 4 C-0.3125 6.4375 -0.3125 6.4375 -2 9 C-3.87166111 12.95128457 -4.41898593 16.68389549 -5 21 C-5.33 21.33 -5.66 21.66 -6 22 C-6.09823937 23.66429051 -6.12973631 25.33281931 -6.125 27 C-6.12757813 27.9075 -6.13015625 28.815 -6.1328125 29.75 C-6.25173779 31.96966611 -6.25173779 31.96966611 -5 33 C-4.95936168 34.66617115 -4.957279 36.33388095 -5 38 C-8.37725842 34.47787259 -8.6492928 30.99022885 -8.6875 26.3125 C-8.69458984 25.57588135 -8.70167969 24.8392627 -8.70898438 24.08032227 C-8.42685086 15.07397245 -4.32372227 7.71128147 0 0 Z " fill="#F5EE72" transform="translate(296,336)"/>
<path d="M0 0 C1.28519531 -0.01417969 2.57039063 -0.02835938 3.89453125 -0.04296875 C7.1875 0.1875 7.1875 0.1875 10.1875 2.1875 C9.26638428 2.20151855 9.26638428 2.20151855 8.32666016 2.21582031 C5.48785567 2.27019741 2.65058268 2.35370552 -0.1875 2.4375 C-1.15300781 2.45167969 -2.11851562 2.46585938 -3.11328125 2.48046875 C-10.87101532 2.7407954 -16.9141665 4.73833325 -23.8125 8.1875 C-22.8125 5.1875 -22.8125 5.1875 -19.8125 3.1875 C-18.4925 3.1875 -17.1725 3.1875 -15.8125 3.1875 C-15.8125 2.5275 -15.8125 1.8675 -15.8125 1.1875 C-10.54042648 0.3267533 -5.33836524 0.05132427 0 0 Z " fill="#F6F078" transform="translate(335.8125,133.8125)"/>
<path d="M0 0 C0.78821819 2.29543427 1.13558044 3.58008982 0.37915039 5.92285156 C0.03875732 6.5722168 -0.30163574 7.22158203 -0.65234375 7.890625 C-1.01650391 8.59960938 -1.38066406 9.30859375 -1.75585938 10.0390625 C-2.14580078 10.76867187 -2.53574219 11.49828125 -2.9375 12.25 C-3.32357422 12.99507813 -3.70964844 13.74015625 -4.10742188 14.5078125 C-5.06090166 16.34414394 -6.02905677 18.17284207 -7 20 C-7.66 20 -8.32 20 -9 20 C-8.938125 21.1446875 -8.938125 21.1446875 -8.875 22.3125 C-9 25 -9 25 -11 28 C-11.66 28 -12.32 28 -13 28 C-12.57228451 26.58034858 -12.13234457 25.1643776 -11.6875 23.75 C-11.44386719 22.96109375 -11.20023438 22.1721875 -10.94921875 21.359375 C-10 19 -10 19 -8.5546875 17.1171875 C-6.54127721 14.37530716 -5.58789065 11.57012888 -4.4375 8.375 C-2.21616872 2.21616872 -2.21616872 2.21616872 0 0 Z " fill="#FEFDD6" transform="translate(228,304)"/>
<path d="M0 0 C0.66 0 1.32 0 2 0 C0.23881495 6.16414768 -2.22153322 11.77216212 -5.0625 17.5 C-5.41505859 18.21865234 -5.76761719 18.93730469 -6.13085938 19.67773438 C-8.7525042 24.8762521 -8.7525042 24.8762521 -11 26 C-10.67 23.36 -10.34 20.72 -10 18 C-9.01 17.67 -8.02 17.34 -7 17 C-7 16.01 -7 15.02 -7 14 C-6.34 14 -5.68 14 -5 14 C-5.061875 12.8553125 -5.061875 12.8553125 -5.125 11.6875 C-5 9 -5 9 -3 6 C-2.34 6 -1.68 6 -1 6 C-0.67 4.02 -0.34 2.04 0 0 Z " fill="#F6EF7A" transform="translate(140,479)"/>
<path d="M0 0 C0 0.66 0 1.32 0 2 C-0.66 2 -1.32 2 -2 2 C-2 2.66 -2 3.32 -2 4 C-3.36125 5.0828125 -3.36125 5.0828125 -4.75 6.1875 C-10.62508455 10.88479637 -13.68275947 17.95527945 -14.625 25.3125 C-14.74875 26.529375 -14.8725 27.74625 -15 29 C-15.33 29 -15.66 29 -16 29 C-16.53679805 18.76107429 -16.53679805 18.76107429 -13 14 C-12.7525 13.236875 -12.505 12.47375 -12.25 11.6875 C-10.11665925 7.1008174 -5.57961308 0 0 0 Z " fill="#F5EF7A" transform="translate(62,75)"/>
<path d="M0 0 C0.33 0.66 0.66 1.32 1 2 C-0.3696033 5.1717129 -1.94746461 7.92543365 -3.9375 10.75 C-6.18763212 14.29566274 -7.56280692 17.79136182 -8.97265625 21.73046875 C-10.0218438 24.04825569 -11.09552551 25.34370066 -13 27 C-12.67 24.69 -12.34 22.38 -12 20 C-11.34 20 -10.68 20 -10 20 C-9.87625 19.4225 -9.7525 18.845 -9.625 18.25 C-8.79451008 15.26023628 -7.3877787 12.72993637 -5.9375 10 C-5.00499339 8.01065256 -4.45925984 6.14321257 -4 4 C-3.34 4 -2.68 4 -2 4 C-2 3.01 -2 2.02 -2 1 C-1.34 0.67 -0.68 0.34 0 0 Z " fill="#F6F07F" transform="translate(231,296)"/>
<path d="M0 0 C0.58203125 1.84765625 0.58203125 1.84765625 1 4 C-0.3125 6.4375 -0.3125 6.4375 -2 9 C-2.67441131 10.6635479 -3.3400321 12.33066942 -4 14 C-4.6286621 15.40365072 -5.27587202 16.79908371 -5.9375 18.1875 C-6.25589844 18.86167969 -6.57429687 19.53585937 -6.90234375 20.23046875 C-8 22 -8 22 -11 24 C-8.56705598 15.33263693 -4.34217123 7.82828494 0 0 Z " fill="#F6F183" transform="translate(206,517)"/>
<path d="M0 0 C1.23980045 2.93108892 0.99509316 4.01311282 -0.14453125 7.05859375 C-0.69496094 8.17363281 -1.24539062 9.28867187 -1.8125 10.4375 C-4.07464408 15.04238857 -4.07464408 15.04238857 -6.06640625 19.765625 C-7.20823052 22.49835923 -8.81708658 24.03537792 -11 26 C-10.3823197 21.13457978 -8.29685579 17.28679943 -6.0625 13 C-2.77101703 6.62001105 -2.77101703 6.62001105 0 0 Z " fill="#FEFDD2" transform="translate(193,374)"/>
<path d="M0 0 C0.98726527 2.66561622 1.0275526 3.90126985 0.25 6.6875 C-1 9 -1 9 -4 10 C-4.12375 10.5775 -4.2475 11.155 -4.375 11.75 C-5.31566791 15.13640447 -7.37973392 16.75405764 -10 19 C-10.99 19 -11.98 19 -13 19 C-13 18.34 -13 17.68 -13 17 C-12.38125 16.938125 -11.7625 16.87625 -11.125 16.8125 C-10.42375 16.544375 -9.7225 16.27625 -9 16 C-8.29289322 14.35008418 -7.63437344 12.6792238 -7 11 C-5.33333333 9 -3.66666667 7 -2 5 C-0.6950516 2.2875382 -0.6950516 2.2875382 0 0 Z " fill="#FDFBC7" transform="translate(337,720)"/>
<path d="M0 0 C0.625 1.8125 0.625 1.8125 1 4 C0.01 5.485 0.01 5.485 -1 7 C-1.66 7 -2.32 7 -3 7 C-3 8.98 -3 10.96 -3 13 C-4.98 13.99 -4.98 13.99 -7 15 C-6.938125 16.1446875 -6.938125 16.1446875 -6.875 17.3125 C-7 20 -7 20 -9 23 C-9.66 23 -10.32 23 -11 23 C-9.5241454 18.10141877 -8.2242688 14.030336 -5 10 C-3.98034573 7.67518826 -2.97940398 5.34205301 -2 3 C-1.34 2.01 -0.68 1.02 0 0 Z " fill="#F7F07E" transform="translate(336,256)"/>
<path d="M0 0 C0.33 0 0.66 0 1 0 C1.40064958 4.54069522 0.16592257 7.04158978 -2 11 C-2.39832031 11.84820313 -2.79664063 12.69640625 -3.20703125 13.5703125 C-3.84705078 14.92769531 -3.84705078 14.92769531 -4.5 16.3125 C-4.9021875 17.17488281 -5.304375 18.03726563 -5.71875 18.92578125 C-7 21 -7 21 -10 22 C-8.20248446 17.27915654 -6.03862628 12.74793489 -3.875 8.1875 C-3.50246094 7.39923828 -3.12992187 6.61097656 -2.74609375 5.79882812 C-1.83204476 3.86526295 -0.91620158 1.93254612 0 0 Z " fill="#FEFCCF" transform="translate(348,698)"/>
<path d="M0 0 C0.76512158 2.25842351 1.12796879 3.57783379 0.42675781 5.89111328 C0.10545898 6.52774902 -0.21583984 7.16438477 -0.546875 7.8203125 C-0.8975 8.52027344 -1.248125 9.22023437 -1.609375 9.94140625 C-1.98578125 10.66199219 -2.3621875 11.38257813 -2.75 12.125 C-3.1109375 12.85332031 -3.471875 13.58164063 -3.84375 14.33203125 C-6.59895833 19.73263889 -6.59895833 19.73263889 -10 22 C-9.57405412 20.55903414 -9.13373367 19.12231288 -8.6875 17.6875 C-8.44386719 16.88699219 -8.20023438 16.08648437 -7.94921875 15.26171875 C-6.93911884 12.85493748 -5.81847903 11.81847903 -4 10 C-3.0416035 7.7723492 -3.0416035 7.7723492 -2.375 5.375 C-1.08333333 1.08333333 -1.08333333 1.08333333 0 0 Z " fill="#FEFDD5" transform="translate(589,205)"/>
<path d="M0 0 C1.15779381 3.4506796 1.04337988 3.90282908 -0.5625 7.5 C-0.93246094 8.18191406 -1.30242187 8.86382813 -1.68359375 9.56640625 C-3.80749042 13.49277902 -5.6912132 17.53958379 -7.6328125 21.55859375 C-9 24 -9 24 -11 25 C-9.00106751 18.27188576 -6.24724573 12.21075154 -3 6 C-2.39295579 4.79310973 -1.78824768 3.58503679 -1.1875 2.375 C-0.795625 1.59125 -0.40375 0.8075 0 0 Z " fill="#FEFDD6" transform="translate(386,621)"/>
<path d="M0 0 C0.66 0 1.32 0 2 0 C0.68675806 4.22248127 -0.92402498 8.0652702 -2.9375 12 C-3.44152344 12.99 -3.94554687 13.98 -4.46484375 15 C-4.97144531 15.99 -5.47804687 16.98 -6 18 C-7.00185057 19.99907365 -8.00238308 21.99881023 -9 24 C-9.33 24 -9.66 24 -10 24 C-10 22.35 -10 20.7 -10 19 C-9.34 19 -8.68 19 -8 19 C-7.86722656 18.42765625 -7.73445312 17.8553125 -7.59765625 17.265625 C-7.00619683 15.02349125 -6.26711146 12.91420381 -5.4375 10.75 C-5.16808594 10.04359375 -4.89867187 9.3371875 -4.62109375 8.609375 C-4.41613281 8.07828125 -4.21117187 7.5471875 -4 7 C-3.34 7 -2.68 7 -2 7 C-1.855625 6.21625 -1.71125 5.4325 -1.5625 4.625 C-1 2 -1 2 0 0 Z " fill="#FEFEDC" transform="translate(189,547)"/>
<path d="M0 0 C0.66 0.33 1.32 0.66 2 1 C-4.40769231 5.77435897 -4.40769231 5.77435897 -7.625 7 C-10.84780459 8.35697035 -12.63533178 10.45343423 -15 13 C-16.33333333 14.33333333 -17.66666667 15.66666667 -19 17 C-16.53019059 9.14151551 -9.78561455 5.0154573 -3 1 C-2.01 0.67 -1.02 0.34 0 0 Z " fill="#F5F18F" transform="translate(245,462)"/>
<path d="M0 0 C3.11561344 6.23122689 4.24850746 11.47053109 2.328125 18.4375 C1.61647787 20.31732261 0.81634586 22.16322181 0 24 C-1.13289912 20.60130264 -0.71651798 18.4639938 0 15 C0.06774144 12.38518042 0.09500258 9.80020744 0.0625 7.1875 C0.05798828 6.49462891 0.05347656 5.80175781 0.04882812 5.08789062 C0.03713156 3.39188932 0.01919924 1.69593297 0 0 Z " fill="#FEFDD9" transform="translate(442,486)"/>
<path d="M0 0 C1 3 1 3 -0.546875 6.65234375 C-1.27100046 8.08595243 -2.00584874 9.51418329 -2.75 10.9375 C-3.1109375 11.65357422 -3.471875 12.36964844 -3.84375 13.10742188 C-5.64981961 16.63776446 -7.46361085 19.92583214 -10 23 C-10 21.35 -10 19.7 -10 18 C-9.34 18 -8.68 18 -8 18 C-7.34 15.36 -6.68 12.72 -6 10 C-5.34 10 -4.68 10 -4 10 C-4 8.68 -4 7.36 -4 6 C-3.34 6 -2.68 6 -2 6 C-1.855625 5.38125 -1.71125 4.7625 -1.5625 4.125 C-1 2 -1 2 0 0 Z " fill="#F6EF7B" transform="translate(109,544)"/>
<path d="M0 0 C0 3.02157189 -0.33451122 4.04465923 -1.64453125 6.65234375 C-1.99193359 7.34650391 -2.33933594 8.04066406 -2.69726562 8.75585938 C-3.06529297 9.47580078 -3.43332031 10.19574219 -3.8125 10.9375 C-4.16892578 11.65357422 -4.52535156 12.36964844 -4.89257812 13.10742188 C-6.6798342 16.64586097 -8.45826489 19.92907082 -11 23 C-11 21.35 -11 19.7 -11 18 C-10.34 18 -9.68 18 -9 18 C-9 17.01 -9 16.02 -9 15 C-8.34 15 -7.68 15 -7 15 C-6.8453125 13.4221875 -6.8453125 13.4221875 -6.6875 11.8125 C-5.7657059 6.70073271 -3.82815487 3.4635687 0 0 Z " fill="#F6F07F" transform="translate(178,405)"/>
<path d="M0 0 C0.33 0.66 0.66 1.32 1 2 C0.67 2.99 0.34 3.98 0 5 C-0.14880933 7.78445155 -0.23107 10.52742385 -0.25 13.3125 C-0.270625 14.05951172 -0.29125 14.80652344 -0.3125 15.57617188 C-0.34721577 20.51882912 0.48491617 23.62507786 3 28 C3 28.66 3 29.32 3 30 C2.01 29.67 1.02 29.34 0 29 C-2.61985429 23.65549724 -2.29771413 18.06317146 -2.25 12.25 C-2.25773437 11.29222656 -2.26546875 10.33445312 -2.2734375 9.34765625 C-2.27085937 8.43371094 -2.26828125 7.51976562 -2.265625 6.578125 C-2.26336914 5.74700195 -2.26111328 4.91587891 -2.25878906 4.05957031 C-2 2 -2 2 0 0 Z " fill="#FEFDDA" transform="translate(289,348)"/>
<path d="M0 0 C1 2 1 2 0.1875 5 C-1 8 -1 8 -3 10 C-4.0573219 12.53414804 -4.97460886 15.10336395 -5.90234375 17.6875 C-7 20 -7 20 -10 22 C-8.50395914 17.01319714 -6.37817847 12.60237416 -4 8 C-3.24795432 6.50102459 -2.49787761 5.00105932 -1.75 3.5 C-0.88375 1.7675 -0.88375 1.7675 0 0 Z " fill="#FEFDD6" transform="translate(541,304)"/>
<path d="M0 0 C0.33 0 0.66 0 1 0 C1.65677191 5.202865 -0.64525696 8.86155834 -3 13.3125 C-3.3815625 14.05306641 -3.763125 14.79363281 -4.15625 15.55664062 C-5.09515671 17.37577238 -6.04637594 19.18854001 -7 21 C-7.66 21 -8.32 21 -9 21 C-7.25 14.25 -7.25 14.25 -5 12 C-4.26339278 10.35444726 -3.58125609 8.68404635 -2.9375 7 C-1.05063291 2.10126582 -1.05063291 2.10126582 0 0 Z " fill="#FEFDD5" transform="translate(418,555)"/>
<path d="M0 0 C1.06340773 3.19736014 0.96582104 4.8981025 -0.3125 8 C-0.59351563 8.6909375 -0.87453125 9.381875 -1.1640625 10.09375 C-2.04398261 12.1002968 -2.95616506 14.07292011 -4 16 C-4.66 16 -5.32 16 -6 16 C-6 17.32 -6 18.64 -6 20 C-6.66 20 -7.32 20 -8 20 C-7.67 18.02 -7.34 16.04 -7 14 C-6.34 14 -5.68 14 -5 14 C-4.9175 13.360625 -4.835 12.72125 -4.75 12.0625 C-3.70479628 7.79458483 -1.85908174 3.96892333 0 0 Z " fill="#FEFDD7" transform="translate(431,528)"/>
<path d="M0 0 C0.33 0 0.66 0 1 0 C1.63934602 5.11476819 -0.59466453 8.67254378 -3 13 C-3.66 13 -4.32 13 -5 13 C-5.144375 13.5775 -5.28875 14.155 -5.4375 14.75 C-5.623125 15.4925 -5.80875 16.235 -6 17 C-6.12375 17.721875 -6.2475 18.44375 -6.375 19.1875 C-6.58125 19.785625 -6.7875 20.38375 -7 21 C-7.99 21.33 -8.98 21.66 -10 22 C-8.97176078 18.26094828 -7.60294799 15.22576093 -5.5 12 C-3.39333116 8.76564372 -2.06657086 5.73299801 -1 2 C-0.67 1.34 -0.34 0.68 0 0 Z " fill="#FEFDD4" transform="translate(100,565)"/>
<path d="M0 0 C0.87840996 3.09720845 0.99435406 4.90645403 0 8 C-0.66 8 -1.32 8 -2 8 C-2.144375 8.763125 -2.28875 9.52625 -2.4375 10.3125 C-3 13 -3 13 -4 16 C-4.66 16 -5.32 16 -6 16 C-6 16.99 -6 17.98 -6 19 C-6.66 19 -7.32 19 -8 19 C-6.00386732 12.2813095 -3.2708579 6.19265192 0 0 Z " fill="#FEFCCF" transform="translate(151,460)"/>
<path d="M0 0 C0.66 0 1.32 0 2 0 C0.21440518 6.95365789 -2.2558133 12.87314903 -6 19 C-7.04449911 15.86650268 -6.93423645 15.01031744 -6 12 C-5.34 12 -4.68 12 -4 12 C-4 10.68 -4 9.36 -4 8 C-3.34 8 -2.68 8 -2 8 C-2 6.68 -2 5.36 -2 4 C-1.34 4 -0.68 4 0 4 C0 2.68 0 1.36 0 0 Z " fill="#FEFDD1" transform="translate(297,329)"/>
<path d="M0 0 C0.33 0 0.66 0 1 0 C2.16073704 7.46188096 -1.81097169 12.09047793 -6 18 C-6.33 17.34 -6.66 16.68 -7 16 C-6.0405998 13.9802101 -5.02826536 11.98561586 -4 10 C-2.61531829 6.68665449 -1.30280483 3.34629057 0 0 Z " fill="#F6F07D" transform="translate(160,608)"/>
<path d="M0 0 C1.33332095 2.6666419 0.67102033 4.16680303 0 7 C-0.66 7 -1.32 7 -2 7 C-2.144375 7.78375 -2.28875 8.5675 -2.4375 9.375 C-3 12 -3 12 -4 14 C-4.66 14 -5.32 14 -6 14 C-6 15.32 -6 16.64 -6 18 C-6.66 18 -7.32 18 -8 18 C-6.65150163 13.64029169 -4.95092154 9.68658562 -2.875 5.625 C-2.33617187 4.56539063 -1.79734375 3.50578125 -1.2421875 2.4140625 C-0.83226562 1.61742187 -0.42234375 0.82078125 0 0 Z " fill="#F7F07E" transform="translate(215,499)"/>
<path d="M0 0 C1 2 1 2 0.3125 4.625 C-3.8 15.2 -3.8 15.2 -8 18 C-6.65150163 13.64029169 -4.95092154 9.68658562 -2.875 5.625 C-2.33617187 4.56539063 -1.79734375 3.50578125 -1.2421875 2.4140625 C-0.83226562 1.61742187 -0.42234375 0.82078125 0 0 Z " fill="#F8F186" transform="translate(317,293)"/>
<path d="M0 0 C0.66 0 1.32 0 2 0 C0.00386732 6.7186905 -2.7291421 12.80734808 -6 19 C-7.33332095 16.3333581 -6.67102033 14.83319697 -6 12 C-5.34 12 -4.68 12 -4 12 C-3.81824219 11.07767578 -3.81824219 11.07767578 -3.6328125 10.13671875 C-3.38144531 8.92435547 -3.38144531 8.92435547 -3.125 7.6875 C-2.96257813 6.88699219 -2.80015625 6.08648437 -2.6328125 5.26171875 C-2 3 -2 3 0 0 Z " fill="#F5EF79" transform="translate(557,266)"/>
<path d="M0 0 C2 1 2 1 3.125 4.0625 C3.41375 5.031875 3.7025 6.00125 4 7 C4.66 7 5.32 7 6 7 C7.36363208 8.97946592 8.69418644 10.9819245 10 13 C11.62351109 14.79394446 11.62351109 14.79394446 13 16 C12.67 16.66 12.34 17.32 12 18 C6.61761788 13.08792312 2.80036975 8.76756023 0 2 C0 1.34 0 0.68 0 0 Z " fill="#F5EF7D" transform="translate(291,374)"/>
<path d="M0 0 C1 2 1 2 -0.1875 5.625 C-1.87338425 9.88654074 -3.89345919 13.93219706 -6 18 C-6.66 18 -7.32 18 -8 18 C-6.5315116 13.12586829 -5.26926851 8.97997906 -2 5 C-1.28837557 3.35202764 -0.60968047 1.68834592 0 0 Z " fill="#FEFDD0" transform="translate(301,154)"/>
<path d="M0 0 C0.33 1.32 0.66 2.64 1 4 C0.34 4 -0.32 4 -1 4 C-1.08636719 4.60328125 -1.17273438 5.2065625 -1.26171875 5.828125 C-2.42367067 12.4373928 -2.42367067 12.4373928 -5.625 15.5625 C-6.40875 16.036875 -7.1925 16.51125 -8 17 C-6.3341708 10.83643195 -3.12194714 5.51740344 0 0 Z " fill="#FEFDD2" transform="translate(374,646)"/>
<path d="M0 0 C0.83139386 2.37238501 1.14379438 3.59324463 0.29296875 6 C-0.07183594 6.66 -0.43664062 7.32 -0.8125 8 C-1.16957031 8.66 -1.52664063 9.32 -1.89453125 10 C-2.25933594 10.66 -2.62414062 11.32 -3 12 C-3.67220486 13.33054983 -4.34050489 14.66310493 -5 16 C-5.66 16 -6.32 16 -7 16 C-5.35433477 10.31497465 -2.70967216 5.23318364 0 0 Z " fill="#FEFDD5" transform="translate(599,185)"/>
<path d="M0 0 C0.33 0.66 0.66 1.32 1 2 C-0.87275021 6.05762545 -2.89879743 8.19947204 -7 10 C-9.3125 9.6875 -9.3125 9.6875 -11 9 C-9.9275 8.443125 -8.855 7.88625 -7.75 7.3125 C-4.35083445 5.3888343 -2.24604279 3.23430162 0 0 Z " fill="#F8F081" transform="translate(139,648)"/>
<path d="M0 0 C1 3 1 3 0.109375 5.26953125 C-0.33921875 6.10871094 -0.7878125 6.94789063 -1.25 7.8125 C-1.94416016 9.13314453 -1.94416016 9.13314453 -2.65234375 10.48046875 C-3.09707031 11.31191406 -3.54179687 12.14335938 -4 13 C-4.60890055 14.20595478 -5.21412168 15.41378978 -5.8125 16.625 C-6.204375 17.40875 -6.59625 18.1925 -7 19 C-8.37560097 14.87319708 -7.04519031 13.36329975 -5.1875 9.5 C-4.37345703 7.78296875 -4.37345703 7.78296875 -3.54296875 6.03125 C-2 3 -2 3 0 0 Z " fill="#F6EE7C" transform="translate(387,616)"/>
<path d="M0 0 C0.66 0 1.32 0 2 0 C0.63855967 5.19822672 -1.46730171 8.09543873 -5 12 C-5.99 11.67 -6.98 11.34 -8 11 C-6.71937515 9.2925002 -5.38232443 7.62626404 -4 6 C-3.34 6 -2.68 6 -2 6 C-1.34 4.02 -0.68 2.04 0 0 Z " fill="#FDFCCF" transform="translate(504,378)"/>
<path d="M0 0 C0.58203125 1.8515625 0.58203125 1.8515625 1 4 C0.05988318 5.70116376 -0.94895617 7.36504293 -2 9 C-2.33 10.051875 -2.66 11.10375 -3 12.1875 C-4 15 -4 15 -7 17 C-5.1668733 11.00067626 -2.92678249 5.55079437 0 0 Z " fill="#FEFCCD" transform="translate(518,350)"/>
<path d="M0 0 C1 2 1 2 0.3125 4.625 C-1.21674408 8.55734192 -3.04674911 12.26417062 -5 16 C-5.66 16 -6.32 16 -7 16 C-5.35433477 10.31497465 -2.70967216 5.23318364 0 0 Z " fill="#FEFCCC" transform="translate(167,428)"/>
<path d="M0 0 C0.33 0.66 0.66 1.32 1 2 C0.328125 3.953125 0.328125 3.953125 -0.75 6.25 C-1.12125 7.04792969 -1.4925 7.84585937 -1.875 8.66796875 C-3.22195704 11.46009845 -4.58537045 14.24147237 -6 17 C-6.33 17 -6.66 17 -7 17 C-7 15.35 -7 13.7 -7 12 C-6.34 12 -5.68 12 -5 12 C-4.731875 10.948125 -4.46375 9.89625 -4.1875 8.8125 C-3.1323171 5.42480754 -1.95273622 2.92910433 0 0 Z " fill="#F5EF7A" transform="translate(192,374)"/>
<path d="M0 0 C0 3.40319732 -0.7806852 4.93261256 -2.3125 7.9375 C-2.74175781 8.79214844 -3.17101562 9.64679688 -3.61328125 10.52734375 C-4.91853166 12.85473393 -6.34647489 14.91006064 -8 17 C-8 15.35 -8 13.7 -8 12 C-7.34 12 -6.68 12 -6 12 C-6 10.68 -6 9.36 -6 8 C-5.34 8 -4.68 8 -4 8 C-3.896875 7.4225 -3.79375 6.845 -3.6875 6.25 C-2.90207202 3.67950842 -1.69495803 2.06342716 0 0 Z " fill="#F5F07C" transform="translate(595,192)"/>
<path d="M0 0 C0.33 0 0.66 0 1 0 C1.125 6.75 1.125 6.75 0 9 C-0.22950319 11.204364 -0.41075933 13.41392173 -0.5625 15.625 C-0.64628906 16.81351563 -0.73007813 18.00203125 -0.81640625 19.2265625 C-0.87699219 20.14179687 -0.93757813 21.05703125 -1 22 C-1.33 22 -1.66 22 -2 22 C-2.05434116 19.4580411 -2.0938339 16.91726318 -2.125 14.375 C-2.14175781 13.66214844 -2.15851563 12.94929687 -2.17578125 12.21484375 C-2.21684602 7.7387836 -1.69086567 4.22050722 0 0 Z " fill="#FEFDD5" transform="translate(78,610)"/>
<path d="M0 0 C1.20672946 3.74274684 1.06476758 7.28120548 1 11.1875 C0.96258661 13.45802511 0.95300705 15.72965296 1 18 C1.33 18.33 1.66 18.66 2 19 C2.04063832 20.66617115 2.042721 22.33388095 2 24 C-0.57962898 21.45431351 -1.22170856 19.51025477 -1.328125 15.99609375 C-1.31754385 14.4763762 -1.29102483 12.95670056 -1.25 11.4375 C-1.24484375 10.66986328 -1.2396875 9.90222656 -1.234375 9.11132812 C-1.18870748 5.8375375 -1.04104853 3.1231456 0 0 Z " fill="#F8F390" transform="translate(289,350)"/>
<path d="M0 0 C0.33 0 0.66 0 1 0 C1.28883414 4.06534057 0.57875609 6.33058355 -1.5 9.8125 C-1.9640625 10.60269531 -2.428125 11.39289063 -2.90625 12.20703125 C-3.44765625 13.09455078 -3.44765625 13.09455078 -4 14 C-4.66 14 -5.32 14 -6 14 C-4.85520071 9.50886433 -3.54638745 5.87493742 -1 2 C-0.67 1.34 -0.34 0.68 0 0 Z " fill="#FEFDD5" transform="translate(530,326)"/>
<path d="M0 0 C0.66 0 1.32 0 2 0 C-0.70615034 10.74259681 -0.70615034 10.74259681 -5 14 C-4.67 12.02 -4.34 10.04 -4 8 C-3.34 8 -2.68 8 -2 8 C-1.855625 7.236875 -1.71125 6.47375 -1.5625 5.6875 C-1 3 -1 3 0 0 Z " fill="#F6F081" transform="translate(545,291)"/>
<path d="M0 0 C1 2 1 2 0.25 4.75 C-0.98251685 7.95454382 -2.40772559 10.9602034 -4 14 C-4.66 14 -5.32 14 -6 14 C-6.33 15.32 -6.66 16.64 -7 18 C-7.33 17.34 -7.66 16.68 -8 16 C-6.85546875 13.57421875 -6.85546875 13.57421875 -5.1875 10.6875 C-3.17595503 7.18521386 -1.41391435 3.7865316 0 0 Z " fill="#FEFDD4" transform="translate(281,195)"/>
<path d="M0 0 C0.99 0 1.98 0 3 0 C1.31326082 4.49797113 -0.81673892 8.72886302 -3 13 C-3.33 11.68 -3.66 10.36 -4 9 C-3.34 9 -2.68 9 -2 9 C-2 7.02 -2 5.04 -2 3 C-1.34 3 -0.68 3 0 3 C0 2.01 0 1.02 0 0 Z " fill="#FDFBC9" transform="translate(165,595)"/>
<path d="M0 0 C0.33 0 0.66 0 1 0 C1.3913152 4.45936282 0.21759262 6.97791276 -2 10.8125 C-2.556875 11.78832031 -3.11375 12.76414062 -3.6875 13.76953125 C-4.120625 14.50558594 -4.55375 15.24164063 -5 16 C-6.25348607 13.04893565 -6.01044806 12.02593537 -4.78515625 8.984375 C-4.21667969 7.91703125 -3.64820313 6.8496875 -3.0625 5.75 C-2.49660156 4.67234375 -1.93070313 3.5946875 -1.34765625 2.484375 C-0.90292969 1.66453125 -0.45820313 0.8446875 0 0 Z " fill="#FEFDD7" transform="translate(142,479)"/>
<path d="M0 0 C1.06528748 2.73019786 1.07998186 3.79298812 0.00390625 6.578125 C-0.47175781 7.45984375 -0.94742188 8.3415625 -1.4375 9.25 C-1.91058594 10.14203125 -2.38367188 11.0340625 -2.87109375 11.953125 C-3.24363281 12.62859375 -3.61617187 13.3040625 -4 14 C-4.66 14 -5.32 14 -6 14 C-4.50829734 9.0276578 -2.39542583 4.58154261 0 0 Z " fill="#F6F07D" transform="translate(194,541)"/>
<path d="M0 0 C1.25348607 2.95106435 1.01044806 3.97406463 -0.21484375 7.015625 C-1.06755859 8.61664063 -1.06755859 8.61664063 -1.9375 10.25 C-2.50339844 11.32765625 -3.06929688 12.4053125 -3.65234375 13.515625 C-4.09707031 14.33546875 -4.54179687 15.1553125 -5 16 C-5.66 16 -6.32 16 -7 16 C-5.25 10.25 -5.25 10.25 -3 8 C-2.11221308 6.03511169 -2.11221308 6.03511169 -1.375 3.875 C-0.98441406 2.78832031 -0.98441406 2.78832031 -0.5859375 1.6796875 C-0.29589844 0.84824219 -0.29589844 0.84824219 0 0 Z " fill="#F6EF80" transform="translate(308,311)"/>
<path d="M0 0 C1.46726798 3.81489674 0.43336419 6.29011622 -1 10 C-1.66 10 -2.32 10 -3 10 C-3.66 11.98 -4.32 13.96 -5 16 C-5.83139386 13.62761499 -6.14379438 12.40675537 -5.29296875 10 C-4.92816406 9.34 -4.56335938 8.68 -4.1875 8 C-3.83042969 7.34 -3.47335937 6.68 -3.10546875 6 C-2.74066406 5.34 -2.37585938 4.68 -2 4 C-1.32779514 2.66945017 -0.65949511 1.33689507 0 0 Z " fill="#FEFBCC" transform="translate(264,229)"/>
<path d="M0 0 C1.38609004 3.15020465 0.89180331 4.31918022 -0.25 7.6875 C-2 11 -2 11 -5 12 C-3.68938409 7.76570244 -2.05643741 3.92592596 0 0 Z " fill="#FEFCCE" transform="translate(157,448)"/>
<path d="M0 0 C0.99 0 1.98 0 3 0 C1.68139111 4.61513112 -0.21355437 8.09897612 -3 12 C-4.2077558 8.37673261 -3.54311128 7.35853631 -2 4 C-1.34 4 -0.68 4 0 4 C0 2.68 0 1.36 0 0 Z " fill="#FEFDD5" transform="translate(341,240)"/>
<path d="M0 0 C0.33 1.32 0.66 2.64 1 4 C0.34 4 -0.32 4 -1 4 C-0.67 4.99 -0.34 5.98 0 7 C-1.21484375 8.82421875 -1.21484375 8.82421875 -2.9375 10.6875 C-3.50339844 11.31011719 -4.06929687 11.93273437 -4.65234375 12.57421875 C-5.09707031 13.04472656 -5.54179687 13.51523437 -6 14 C-6 10.27792613 -4.82035432 8.53604411 -3 5.3125 C-2.443125 4.31863281 -1.88625 3.32476563 -1.3125 2.30078125 C-0.879375 1.54152344 -0.44625 0.78226563 0 0 Z " fill="#F5EF7C" transform="translate(148,634)"/>
<path d="M0 0 C0.33 1.32 0.66 2.64 1 4 C0.34 4 -0.32 4 -1 4 C-1.12375 4.721875 -1.2475 5.44375 -1.375 6.1875 C-1.9904931 8.95721894 -2.88444374 11.3970354 -4 14 C-4.66 14 -5.32 14 -6 14 C-4.50829734 9.0276578 -2.39542583 4.58154261 0 0 Z " fill="#F5EF73" transform="translate(170,590)"/>
<path d="M0 0 C0.93045933 2.55144824 1.08564091 3.74006478 0.22265625 6.359375 C-0.16019531 7.14828125 -0.54304688 7.9371875 -0.9375 8.75 C-1.50791016 9.94882813 -1.50791016 9.94882813 -2.08984375 11.171875 C-2.39019531 11.77515625 -2.69054687 12.3784375 -3 13 C-3.66 13 -4.32 13 -5 13 C-4.54554036 11.58208592 -4.08625056 10.16571954 -3.625 8.75 C-3.24214844 7.56664062 -3.24214844 7.56664062 -2.8515625 6.359375 C-2.04826333 4.13372042 -1.10288338 2.09068328 0 0 Z " fill="#F6EF7E" transform="translate(370,186)"/>
<path d="M0 0 C4.48222888 2.18054378 6.24897776 4.33060736 8 9 C7.67 9.99 7.34 10.98 7 12 C6.773125 11.278125 6.54625 10.55625 6.3125 9.8125 C4.75528356 6.47560763 2.61945291 4.55051994 0 2 C0 1.34 0 0.68 0 0 Z " fill="#FCFAC1" transform="translate(624,80)"/>
<path d="M0 0 C2.33294775 -0.04241723 4.66702567 -0.04092937 7 0 C7.33 0.33 7.66 0.66 8 1 C10.32817964 1.36760731 12.6618385 1.70241581 15 2 C15 2.33 15 2.66 15 3 C4.44191344 3.3690205 4.44191344 3.3690205 0 1 C0 0.67 0 0.34 0 0 Z " fill="#F6F07B" transform="translate(65,741)"/>
<path d="M0 0 C1.12377697 3.30435084 0.89554742 5.0506862 -0.4375 8.25 C-0.72496094 8.95640625 -1.01242188 9.6628125 -1.30859375 10.390625 C-1.53675781 10.92171875 -1.76492187 11.4528125 -2 12 C-2.66 12 -3.32 12 -4 12 C-2 3.42857143 -2 3.42857143 0 0 Z " fill="#FEFCD0" transform="translate(235,288)"/>
<path d="M0 0 C0.33 0.66 0.66 1.32 1 2 C0.00390625 4.3828125 0.00390625 4.3828125 -1.4375 7.125 C-1.91058594 8.03507813 -2.38367188 8.94515625 -2.87109375 9.8828125 C-3.24363281 10.58148437 -3.61617187 11.28015625 -4 12 C-4.33 12 -4.66 12 -5 12 C-5 10.02 -5 8.04 -5 6 C-4.34 6 -3.68 6 -3 6 C-3 5.01 -3 4.02 -3 3 C-2.34 3 -1.68 3 -1 3 C-0.67 2.01 -0.34 1.02 0 0 Z " fill="#FEFDD7" transform="translate(152,624)"/>
<path d="M0 0 C0.33 1.32 0.66 2.64 1 4 C0.34 4 -0.32 4 -1 4 C-0.938125 5.1446875 -0.938125 5.1446875 -0.875 6.3125 C-1 9 -1 9 -3 12 C-3.66 12 -4.32 12 -5 12 C-4.54738642 10.56068883 -4.08767021 9.12361001 -3.625 7.6875 C-3.24214844 6.48673828 -3.24214844 6.48673828 -2.8515625 5.26171875 C-2 3 -2 3 0 0 Z " fill="#FEFDD1" transform="translate(126,512)"/>
<path d="M0 0 C0.99 0 1.98 0 3 0 C1.55049545 3.7910119 -0.15172566 7.3874638 -2 11 C-2.95465783 8.83032311 -3.14401212 7.43671207 -2.3984375 5.17578125 C-1.64129615 3.4315257 -0.82390802 1.71372869 0 0 Z " fill="#F6F080" transform="translate(211,333)"/>
<path d="M0 0 C0.66 0.33 1.32 0.66 2 1 C0.6302836 4.99500618 -1.25722422 7.80009492 -4 11 C-4 9.35 -4 7.7 -4 6 C-3.34 6 -2.68 6 -2 6 C-1.7834375 5.071875 -1.7834375 5.071875 -1.5625 4.125 C-1 2 -1 2 0 0 Z " fill="#FEFDD9" transform="translate(305,314)"/>
<path d="M0 0 C0.66 0.33 1.32 0.66 2 1 C0.18690997 4.77727089 -1.9073259 8.37269822 -4 12 C-4.33 11.34 -4.66 10.68 -5 10 C-4.00390625 7.6171875 -4.00390625 7.6171875 -2.5625 4.875 C-1.85287109 3.50988281 -1.85287109 3.50988281 -1.12890625 2.1171875 C-0.75636719 1.41851562 -0.38382812 0.71984375 0 0 Z " fill="#F7F086" transform="translate(351,225)"/>
<path d="M0 0 C0.66 0 1.32 0 2 0 C1.53998088 2.14675591 1.03717273 3.93030113 0 5.875 C-1.25330113 8.5382649 -1.60416681 11.09722329 -2 14 C-2.33 14 -2.66 14 -3 14 C-3.34615998 8.34605369 -2.43425238 4.96993194 0 0 Z " fill="#FEFBCC" transform="translate(48,86)"/>
<path d="M0 0 C3.3 1.65 6.6 3.3 10 5 C10 5.33 10 5.66 10 6 C7.69 6 5.38 6 3 6 C3 5.01 3 4.02 3 3 C2.01 2.67 1.02 2.34 0 2 C0 1.34 0 0.68 0 0 Z " fill="#F5EE6F" transform="translate(90,654)"/>
<path d="M0 0 C0.33 1.32 0.66 2.64 1 4 C0.34 4 -0.32 4 -1 4 C-0.938125 5.1446875 -0.938125 5.1446875 -0.875 6.3125 C-1 9 -1 9 -3 12 C-3.66 12 -4.32 12 -5 12 C-4.54738642 10.56068883 -4.08767021 9.12361001 -3.625 7.6875 C-3.24214844 6.48673828 -3.24214844 6.48673828 -2.8515625 5.26171875 C-2 3 -2 3 0 0 Z " fill="#FEFDD5" transform="translate(404,584)"/>
<path d="M0 0 C0.66 0.33 1.32 0.66 2 1 C0.90241493 1.84198307 -0.20335317 2.67330671 -1.3125 3.5 C-1.92738281 3.9640625 -2.54226562 4.428125 -3.17578125 4.90625 C-5 6 -5 6 -8 6 C-7 3 -7 3 -3.5625 1.25 C-2.386875 0.8375 -1.21125 0.425 0 0 Z " fill="#F7F07C" transform="translate(245,462)"/>
<path d="M0 0 C4.62 0.99 9.24 1.98 14 3 C14 3.33 14 3.66 14 4 C4.41885965 4.56359649 4.41885965 4.56359649 0 1 C0 0.67 0 0.34 0 0 Z " fill="#FEFEDC" transform="translate(308,395)"/>
<path d="M0 0 C0.33 0.66 0.66 1.32 1 2 C-0.07229283 5.13439441 -1.47657021 8.06195683 -3 11 C-3.66 11 -4.32 11 -5 11 C-3.92289822 6.69159287 -2.96052484 3.36423277 0 0 Z " fill="#FEFDD5" transform="translate(257,245)"/>
<path d="M0 0 C0.66 0.33 1.32 0.66 2 1 C1.38080922 2.46080933 0.75443308 3.91857455 0.125 5.375 C-0.22304688 6.18710937 -0.57109375 6.99921875 -0.9296875 7.8359375 C-2 10 -2 10 -4 12 C-4 10.35 -4 8.7 -4 7 C-3.34 7 -2.68 7 -2 7 C-1.855625 6.401875 -1.71125 5.80375 -1.5625 5.1875 C-1.1127561 3.43849596 -0.57107659 1.71322977 0 0 Z " fill="#F6F080" transform="translate(537,308)"/>
<path d="M0 0 C1 2 1 2 0.25 4.9375 C-0.89726872 7.74830836 -1.69701628 9.1157406 -4 11 C-4 7.80389448 -3.45328458 6.58282374 -2 3.8125 C-1.62875 3.09707031 -1.2575 2.38164062 -0.875 1.64453125 C-0.441875 0.83048828 -0.441875 0.83048828 0 0 Z " fill="#F7F181" transform="translate(357,213)"/>
<path d="M0 0 C0.66 0 1.32 0 2 0 C1.39301257 4.12751449 -0.03810791 7.3321148 -2 11 C-2.95465783 8.83032311 -3.14401212 7.43671207 -2.3984375 5.17578125 C-1.64129615 3.4315257 -0.82390802 1.71372869 0 0 Z " fill="#F4F072" transform="translate(272,208)"/>
<path d="M0 0 C0.33 0 0.66 0 1 0 C1.3636198 4.24223102 0.5393228 6.58168085 -2 10 C-2.66 10 -3.32 10 -4 10 C-2.8905928 6.51329166 -1.73662334 3.22515763 0 0 Z " fill="#FDFCCC" transform="translate(564,256)"/>
<path d="M0 0 C1 2 1 2 0.125 5 C-1 8 -1 8 -2 10 C-2.66 10 -3.32 10 -4 10 C-3.52449439 8.51965236 -3.04448784 7.04074979 -2.5625 5.5625 C-2.29566406 4.73878906 -2.02882812 3.91507813 -1.75390625 3.06640625 C-1 1 -1 1 0 0 Z " fill="#F7F183" transform="translate(187,555)"/>
<path d="M0 0 C0.6875 1.625 0.6875 1.625 1 4 C-0.4375 7.25 -0.4375 7.25 -2 10 C-2.66 10 -3.32 10 -4 10 C-2.8905928 6.51329166 -1.73662334 3.22515763 0 0 Z " fill="#F7F083" transform="translate(322,283)"/>
<path d="M0 0 C1 2 1 2 0.25 5 C-1 8 -1 8 -4 10 C-3.52449439 8.51965236 -3.04448784 7.04074979 -2.5625 5.5625 C-2.29566406 4.73878906 -2.02882813 3.91507813 -1.75390625 3.06640625 C-1 1 -1 1 0 0 Z " fill="#FCFABE" transform="translate(583,217)"/>
<path d="M0 0 C6.52307692 0.49230769 6.52307692 0.49230769 8.9375 3.0625 C9.288125 3.701875 9.63875 4.34125 10 5 C8.35 4.67 6.7 4.34 5 4 C5 3.34 5 2.68 5 2 C3.35 1.67 1.7 1.34 0 1 C0 0.67 0 0.34 0 0 Z " fill="#F6F081" transform="translate(608,71)"/>
<path d="M0 0 C0.66 0.33 1.32 0.66 2 1 C0.68 3.64 -0.64 6.28 -2 9 C-2.33 9 -2.66 9 -3 9 C-3.26218749 5.85375007 -3.24754367 4.38162983 -1.5 1.6875 C-1.005 1.130625 -0.51 0.57375 0 0 Z " fill="#F4EE74" transform="translate(206,345)"/>
<path d="M0 0 C0.6875 1.625 0.6875 1.625 1 4 C-0.4375 7.25 -0.4375 7.25 -2 10 C-2.66 10 -3.32 10 -4 10 C-2.8905928 6.51329166 -1.73662334 3.22515763 0 0 Z " fill="#FFFDD8" transform="translate(214,332)"/>
<path d="M0 0 C0.99 0 1.98 0 3 0 C2.71125 0.556875 2.4225 1.11375 2.125 1.6875 C0.9586747 4.08494645 -0.0339881 6.51596939 -1 9 C-1.33 9 -1.66 9 -2 9 C-2.20140476 5.37471432 -1.85776765 3.13498292 0 0 Z " fill="#F6EE77" transform="translate(297,157)"/>
<path d="M0 0 C0.66 0.33 1.32 0.66 2 1 C1.360625 1.103125 0.72125 1.20625 0.0625 1.3125 C-0.9584375 1.6528125 -0.9584375 1.6528125 -2 2 C-2.33 2.99 -2.66 3.98 -3 5 C-4.65 5 -6.3 5 -8 5 C-5.31158141 2.74754119 -3.35358125 1.11786042 0 0 Z " fill="#F6EF7C" transform="translate(70,70)"/>
</svg>
